<svg width="193" height="111" viewBox="0 0 193 111" fill="none" xmlns="http://www.w3.org/2000/svg">
<g clip-path="url(#clip0_677_2507)">
<path d="M106.81 43.2399C106.25 43.2399 105.71 42.9899 105.35 42.5199C104.81 41.8299 104.83 40.8599 105.39 40.1899C105.72 39.7999 106.02 39.3999 106.28 38.9999C106.58 38.5399 107.07 38.2399 107.61 38.1799C107.68 38.1799 107.76 38.1699 107.83 38.1699C108.3 38.1699 108.75 38.3499 109.1 38.6699C109.85 38.8699 110.43 39.5199 110.5 40.2999C110.57 41.0699 110.19 41.8199 109.48 42.1599L107.61 43.0599C107.35 43.1799 107.08 43.2399 106.81 43.2399Z" fill="white"/>
<path d="M107.82 40.0298C108.06 40.2498 108.35 40.4098 108.67 40.4898L106.8 41.3798C107.16 40.9498 107.5 40.4898 107.81 40.0198M107.82 36.3198C107.68 36.3198 107.53 36.3198 107.39 36.3398C106.3 36.4698 105.33 37.0698 104.72 37.9798C104.5 38.3198 104.24 38.6598 103.96 38.9998C102.84 40.3398 102.81 42.2798 103.88 43.6498C104.6 44.5798 105.69 45.0798 106.81 45.0798C107.35 45.0798 107.9 44.9598 108.41 44.7098L110.28 43.8198C111.68 43.1498 112.52 41.6698 112.37 40.1198C112.23 38.7098 111.31 37.5098 110.01 37.0098C109.38 36.5498 108.61 36.2998 107.83 36.2998" fill="white"/>
<path d="M95.2701 51.8303C95.0301 51.8303 94.7901 51.7803 94.5601 51.6903L91.2101 50.3003C90.6101 50.0503 90.1801 49.5103 90.0901 48.8603C90.0001 48.2503 89.7201 47.5903 89.2901 46.9603C88.8401 46.3003 88.8601 45.4303 89.3401 44.8003C89.7001 44.3303 90.2501 44.0703 90.8201 44.0703C91.0201 44.0703 91.2201 44.1003 91.4101 44.1703C92.7301 44.6103 94.1101 44.8403 95.5201 44.8403C96.7601 44.8403 97.9801 44.6703 99.1501 44.3203C99.3201 44.2703 99.5001 44.2403 99.6701 44.2403C100.21 44.2403 100.73 44.4803 101.09 44.9003C101.56 45.4603 101.66 46.2603 101.33 46.9203C101.1 47.3803 100.97 47.8903 100.95 48.3803C100.93 49.1003 100.49 49.7303 99.8301 50.0203L96.0001 51.6703C95.7701 51.7703 95.5201 51.8203 95.2701 51.8203" fill="white"/>
<path d="M90.81 45.91C92.31 46.42 93.89 46.68 95.51 46.68C96.93 46.68 98.33 46.48 99.66 46.09C99.32 46.78 99.12 47.54 99.09 48.32L95.26 49.97L91.91 48.59C91.77 47.68 91.39 46.78 90.81 45.92M90.81 42.21C89.67 42.21 88.57 42.74 87.85 43.68C86.89 44.95 86.84 46.69 87.74 48.01C88.09 48.52 88.21 48.91 88.24 49.15C88.43 50.44 89.29 51.53 90.49 52.02L93.84 53.41C94.29 53.6 94.77 53.69 95.25 53.69C95.73 53.69 96.25 53.59 96.72 53.39L100.54 51.74C101.86 51.17 102.73 49.9 102.77 48.46C102.77 48.25 102.83 48.04 102.92 47.84C103.19 47.32 103.35 46.74 103.35 46.11C103.35 44.09 101.73 42.44 99.72 42.4H99.64C99.55 42.4 99.46 42.4 99.37 42.4C99.08 42.42 98.79 42.48 98.52 42.56C97.54 42.84 96.52 42.98 95.49 42.98C94.28 42.98 93.1 42.79 91.97 42.41C91.58 42.28 91.18 42.21 90.78 42.21" fill="white"/>
<path d="M115.5 81.0704C108.43 81.0704 101.19 79.0603 93.9901 75.1003C87.3401 71.4403 80.8401 69.5903 74.6801 69.5903C64.3501 69.5903 58.5101 74.7904 58.4501 74.8503C58.1001 75.1703 57.6601 75.3304 57.2001 75.3304C56.9501 75.3304 56.6901 75.2803 56.4501 75.1703C55.7801 74.8703 55.3501 74.2104 55.3501 73.4704V9.45035C55.3501 8.93035 55.5701 8.43035 55.9601 8.08035C56.2401 7.83035 62.9401 1.86035 74.6901 1.86035C81.4901 1.86035 88.5901 3.87035 95.7901 7.83035C102.44 11.4904 109.07 13.3404 115.52 13.3404C126.3 13.3404 132.95 8.07035 133.02 8.01035C133.36 7.74035 133.77 7.60035 134.19 7.60035C134.46 7.60035 134.73 7.66035 134.99 7.78035C135.63 8.09035 136.05 8.74035 136.05 9.45035V73.4804C136.05 74.0404 135.8 74.5603 135.37 74.9203C135.06 75.1703 127.69 81.0804 115.53 81.0804M81.5301 43.0204C79.6901 43.0204 78.2801 43.7004 77.7601 44.8304C76.8401 46.8504 78.8001 49.7403 82.1501 51.2803C83.3901 51.8503 84.6901 52.1604 85.9101 52.2004C86.7801 52.2204 87.5101 52.8504 87.6801 53.7004C87.8401 54.5504 87.3901 55.4104 86.6001 55.7504L77.4101 59.7204C77.0401 59.9004 76.7601 60.2104 76.6201 60.6104C76.4801 61.0104 76.5001 61.4304 76.6901 61.8204C76.9501 62.3703 77.5101 62.7204 78.1201 62.7204C78.3601 62.7204 78.5801 62.6704 78.8001 62.5604L94.5201 54.2603C94.7901 54.1203 95.0901 54.0504 95.3801 54.0504C95.6701 54.0504 95.9501 54.1203 96.2201 54.2504L112.62 62.5604C112.81 62.6504 113.03 62.7004 113.26 62.7004C113.88 62.7004 114.44 62.3404 114.7 61.7803C114.88 61.3904 114.9 60.9704 114.75 60.5704C114.6 60.1703 114.31 59.8604 113.93 59.6804L104.06 55.6003C103.24 55.2603 102.78 54.3904 102.95 53.5303C103.11 52.7104 103.8 52.1004 104.63 52.0404C104.65 52.0404 104.67 52.0404 104.68 52.0404C104.68 52.0404 104.74 52.0404 104.77 52.0404V52.7204L104.92 53.8804L104.83 52.0303C104.83 52.0303 105.11 51.9904 105.12 51.9904L105.57 53.7904L105.28 51.9604L105.62 51.8703C105.64 51.8703 105.82 51.8004 105.84 51.7904L106.05 51.7004L113.91 47.9304C114.18 47.8004 114.37 47.5904 114.47 47.3104C114.57 47.0304 114.55 46.7403 114.42 46.4804L114.03 45.6703C113.96 45.5303 113.91 45.3804 113.88 45.2304C113.28 44.8503 112.9 44.0904 112.98 43.3804C112.88 43.2604 112.77 43.0504 112.71 42.9104L112.3 42.0504C112.12 41.6804 111.73 41.4304 111.31 41.4304C111.26 41.4304 111.2 41.4304 111.15 41.4504C111.05 41.4604 110.96 41.4704 110.86 41.4704C110.25 41.4704 109.67 41.1703 109.32 40.6604C108.92 40.0704 108.9 39.2904 109.26 38.6804L109.28 36.5103C109.28 35.8904 109.59 35.3104 110.1 34.9704C110.41 34.7604 110.68 34.4804 110.87 34.1604C111.04 33.8804 111.28 33.6404 111.57 33.4804C112.17 33.1504 112.54 32.5304 112.54 31.8504C112.54 31.3004 112.31 30.8004 111.9 30.4504C111.62 30.2104 111.41 29.8904 111.32 29.5304C111.01 28.3904 109.97 27.5704 108.79 27.5404C108.09 27.5204 107.46 27.1103 107.16 26.4804C105.57 23.1203 102.61 20.6104 99.0401 19.5904L98.4601 19.4404L98.1501 19.3704C97.8901 19.3204 97.6901 19.2804 97.4901 19.2504L97.2001 19.2104L97.2901 17.3504L97.0701 19.1904L96.4401 19.1304L96.3801 17.2704L96.2901 19.1204L96.2401 17.2604L96.1501 19.1104L95.5301 19.0904L94.9101 19.1104L94.6801 17.2704V19.1304L93.9801 19.2004L93.6201 17.3804L93.8501 19.2204L93.6701 19.2404C93.3501 19.2903 93.1501 19.3204 92.9501 19.3604L92.3401 19.5004L92.0201 19.5904C88.4301 20.6104 85.4701 23.1203 83.8801 26.4804C83.5801 27.1103 82.9501 27.5204 82.2501 27.5404C81.0701 27.5704 80.0301 28.3804 79.7201 29.5304C79.6201 29.8904 79.4201 30.2104 79.1401 30.4504C78.7301 30.8004 78.5001 31.3004 78.5001 31.8504C78.5001 32.5304 78.8701 33.1504 79.4701 33.4804C79.7601 33.6404 80.0101 33.8703 80.1701 34.1604C80.5601 34.8104 81.2401 35.2604 81.9901 35.3604C82.6701 35.4504 83.2401 35.9004 83.4801 36.5404C84.0101 37.9404 84.7901 39.2304 85.7801 40.3904C86.3101 41.0103 86.3801 41.9004 85.9401 42.5904C85.5901 43.1404 85.0001 43.4504 84.3701 43.4504C84.2101 43.4504 84.0401 43.4304 83.8801 43.3804C83.0701 43.1604 82.2801 43.0504 81.5301 43.0504" fill="white"/>
<path d="M74.67 3.71C80.25 3.71 87.05 5.15 94.87 9.45C102.7 13.76 109.67 15.19 115.49 15.19C127.13 15.19 134.16 9.45 134.16 9.45V73.48C134.16 73.48 127.14 79.22 115.49 79.22C109.67 79.22 102.7 77.79 94.87 73.48C87.04 69.17 80.25 67.74 74.67 67.74C63.5 67.74 57.19 73.48 57.19 73.48V9.45C57.19 9.45 63.5 3.71 74.67 3.71ZM84.36 41.56C83.41 41.3 82.45 41.16 81.53 41.16C78.95 41.16 76.91 42.24 76.08 44.05C74.7 47.05 77.03 50.96 81.38 52.95C82.85 53.63 84.39 54 85.86 54.04L76.67 58.01H76.65L76.63 58.03C75.8 58.43 75.18 59.12 74.87 59.99C74.57 60.86 74.62 61.79 75.01 62.62C75.58 63.81 76.8 64.57 78.11 64.57C78.63 64.57 79.13 64.46 79.59 64.23H79.61L79.63 64.21L95.37 55.9L111.77 64.21H111.79L111.81 64.23C112.26 64.44 112.74 64.54 113.24 64.54C114.58 64.54 115.81 63.75 116.37 62.54C116.75 61.7 116.79 60.77 116.47 59.91C116.15 59.05 115.51 58.36 114.68 57.98H114.66L114.64 57.96L104.75 53.88C104.75 53.88 104.83 53.88 104.87 53.88H104.89H104.91C104.94 53.88 104.98 53.88 105.01 53.88C105.05 53.88 105.09 53.88 105.13 53.87H105.15H105.17C105.2 53.87 105.24 53.87 105.27 53.86C105.31 53.86 105.35 53.85 105.39 53.84H105.41H105.43C105.46 53.84 105.5 53.83 105.53 53.82C105.57 53.82 105.61 53.8 105.65 53.79H105.68L105.7 53.78C105.73 53.78 105.77 53.77 105.8 53.76C105.84 53.75 105.88 53.74 105.92 53.73H105.94C105.94 53.73 106.02 53.7 106.05 53.69C106.1 53.68 106.14 53.66 106.18 53.65H106.2C106.2 53.65 106.27 53.62 106.3 53.61C106.35 53.59 106.4 53.57 106.45 53.55H106.47C106.47 53.55 106.53 53.52 106.56 53.51C106.64 53.47 106.73 53.44 106.81 53.4L108.57 52.56L114.68 49.63C115.39 49.29 115.92 48.69 116.19 47.95C116.45 47.21 116.41 46.41 116.07 45.7L115.68 44.89C115.65 44.73 115.6 44.58 115.52 44.42C115.36 44.08 115.11 43.81 114.8 43.61C114.84 43.25 114.78 42.88 114.62 42.54C114.55 42.39 114.46 42.26 114.36 42.13L113.95 41.27C113.46 40.25 112.42 39.6 111.29 39.6C111.14 39.6 110.99 39.62 110.84 39.64C111.01 39.35 111.12 39.01 111.12 38.64V36.52C111.66 36.16 112.12 35.68 112.45 35.12C113.63 34.48 114.39 33.23 114.39 31.87C114.39 30.77 113.92 29.76 113.1 29.06C112.58 27.14 110.85 25.75 108.83 25.7C107.03 21.9 103.62 18.99 99.54 17.83H99.52C99.42 17.8 99.32 17.77 99.21 17.75L99.15 17.73C99.06 17.71 98.96 17.68 98.87 17.66H98.85L98.8 17.64C98.7 17.62 98.61 17.6 98.51 17.58H98.45C98.22 17.52 97.99 17.48 97.76 17.44H97.68L97.64 17.42C97.56 17.41 97.49 17.4 97.42 17.39H97.31L97.28 17.37C97.21 17.37 97.14 17.35 97.07 17.35H96.92C96.85 17.33 96.79 17.32 96.72 17.32H96.57C96.5 17.3 96.43 17.3 96.36 17.3H96.33H96.21C96.13 17.3 96.05 17.3 95.98 17.3H95.94H95.86C95.74 17.3 95.62 17.3 95.5 17.3C95.38 17.3 95.26 17.3 95.14 17.3H95.06H95.02C94.94 17.3 94.86 17.3 94.79 17.3H94.67H94.64C94.57 17.3 94.5 17.3 94.43 17.31H94.28C94.21 17.33 94.15 17.33 94.08 17.34H93.93C93.86 17.36 93.79 17.37 93.73 17.38H93.7L93.59 17.4C93.51 17.41 93.44 17.42 93.37 17.43H93.34L93.26 17.45C93.03 17.49 92.8 17.53 92.57 17.57H92.52C92.41 17.6 92.32 17.62 92.22 17.65H92.17C92.06 17.69 91.96 17.71 91.87 17.74H91.82C91.71 17.78 91.61 17.81 91.5 17.84H91.48C87.4 19.01 83.99 21.92 82.19 25.72C80.17 25.77 78.43 27.16 77.92 29.08C77.1 29.78 76.63 30.79 76.63 31.89C76.63 33.25 77.39 34.5 78.57 35.14C79.25 36.29 80.42 37.06 81.74 37.23C82.35 38.83 83.25 40.32 84.37 41.63M74.67 0C62.21 0 55 6.43 54.7 6.7C53.93 7.4 53.49 8.4 53.49 9.44V73.47C53.49 74.94 54.36 76.27 55.7 76.86C56.18 77.07 56.69 77.18 57.2 77.18C58.11 77.18 59 76.85 59.69 76.22C59.89 76.04 65.21 71.44 74.68 71.44C80.53 71.44 86.73 73.22 93.1 76.72C100.58 80.83 108.12 82.92 115.51 82.92C128.33 82.92 136.19 76.61 136.52 76.34C137.38 75.63 137.88 74.58 137.88 73.47V9.45C137.88 8.02 137.06 6.71 135.76 6.1C135.25 5.86 134.71 5.74 134.17 5.74C133.33 5.74 132.5 6.02 131.83 6.58C131.78 6.62 125.56 11.48 115.51 11.48C109.38 11.48 103.05 9.7 96.68 6.2C89.19 2.09 81.79 0 74.67 0ZM84.36 45.27C85.61 45.27 86.8 44.64 87.49 43.54C88.36 42.16 88.23 40.38 87.16 39.14C86.31 38.15 85.64 37.04 85.19 35.84C84.71 34.57 83.56 33.66 82.2 33.48C82.01 33.46 81.84 33.34 81.74 33.17C81.4 32.6 80.91 32.13 80.33 31.81C80.9 31.32 81.29 30.68 81.48 29.96C81.57 29.61 81.9 29.36 82.26 29.35C83.66 29.32 84.93 28.5 85.53 27.23C86.89 24.35 89.42 22.2 92.48 21.34L92.74 21.27L93 21.2L93.26 21.14C93.46 21.1 93.64 21.07 93.81 21.04H93.87L94.07 21H94.16L94.34 20.97H94.47L94.61 20.95H94.75L94.89 20.93H95.02L95.17 20.92H95.29H95.53H95.8H95.86H96.07L96.16 20.93H96.33L96.46 20.95H96.6L96.74 20.98L96.87 21L97 21.02L97.14 21.04L97.26 21.06C97.41 21.08 97.58 21.11 97.75 21.15L98.01 21.21L98.27 21.27L98.54 21.34C101.61 22.21 104.15 24.36 105.51 27.24C106.11 28.51 107.37 29.33 108.78 29.36C109.14 29.36 109.47 29.63 109.56 29.97C109.75 30.69 110.16 31.34 110.73 31.82C110.15 32.14 109.65 32.6 109.31 33.17C109.26 33.25 109.19 33.33 109.1 33.39C108.07 34.08 107.45 35.23 107.45 36.47V38.17C106.98 39.31 107.1 40.62 107.8 41.66C108.49 42.69 109.64 43.29 110.86 43.29L111.05 43.69C111.08 43.75 111.11 43.81 111.14 43.87C111.21 44.78 111.62 45.64 112.29 46.26C112.32 46.32 112.34 46.38 112.37 46.44L112.43 46.56L107.01 49.16L105.25 50L105.17 50.04L105.08 50.08L105 50.11L104.92 50.13L104.86 50.14C104.85 50.14 104.79 50.15 104.78 50.15L104.7 50.16C104.69 50.16 104.63 50.16 104.62 50.16C102.89 50.24 101.44 51.52 101.14 53.23C101.06 53.71 101.07 54.19 101.17 54.64L97.1 52.58C96.57 52.31 96 52.18 95.42 52.18C94.84 52.18 94.23 52.32 93.69 52.61L89.53 54.81C89.63 54.33 89.64 53.83 89.55 53.33C89.22 51.62 87.75 50.37 86.01 50.33C85.03 50.3 83.98 50.04 82.97 49.58C80.25 48.33 79.18 46.29 79.5 45.59C79.67 45.23 80.43 44.87 81.58 44.87C82.16 44.87 82.79 44.96 83.44 45.14C83.76 45.23 84.09 45.27 84.42 45.27" fill="white"/>
<path d="M113.25 65.0997C112.67 65.0997 112.12 64.9797 111.59 64.7397L95.5901 56.6297C95.0001 56.3297 94.6101 55.7297 94.5801 55.0697C94.5501 54.4097 94.8701 53.7697 95.4301 53.4197C96.7601 52.5697 98.2001 51.9397 99.1701 51.5597C99.3901 51.4797 99.6101 51.4297 99.8401 51.4297C100.08 51.4297 100.32 51.4797 100.55 51.5697L114.85 57.4697C116.91 58.4097 117.79 60.7797 116.87 62.7797C116.22 64.1897 114.8 65.0997 113.25 65.0997Z" fill="white"/>
<path d="M99.8399 53.2796L114.14 59.1796C115.21 59.6696 115.68 60.9296 115.19 61.9996C114.83 62.7796 114.06 63.2396 113.25 63.2396C112.95 63.2396 112.65 63.1796 112.36 63.0496L96.4299 54.9696C97.6599 54.1796 99.0199 53.5996 99.8399 53.2796ZM99.8399 49.5696C99.3799 49.5696 98.9299 49.6496 98.4899 49.8196C97.4399 50.2296 95.8799 50.9096 94.4299 51.8396C93.3099 52.5596 92.6599 53.8196 92.7199 55.1496C92.7899 56.4796 93.5599 57.6696 94.7499 58.2696L110.68 66.3496C110.68 66.3496 110.77 66.3896 110.81 66.4096C111.58 66.7596 112.4 66.9396 113.24 66.9396C115.51 66.9396 117.6 65.6096 118.54 63.5396C119.19 62.1196 119.25 60.5396 118.71 59.0796C118.17 57.6196 117.09 56.4496 115.67 55.7996C115.63 55.7796 115.58 55.7596 115.54 55.7396L101.24 49.8396C100.79 49.6496 100.31 49.5596 99.8199 49.5596" fill="white"/>
<path d="M78.1099 65.1203C76.5899 65.1203 75.1799 64.2303 74.5199 62.8603C73.5699 60.8803 74.4099 58.5003 76.3899 57.5503L83.8099 54.3403C82.9199 54.1503 82.0199 53.8503 81.1499 53.4503C79.0799 52.5003 77.3599 51.0703 76.2899 49.4303C75.0699 47.5503 74.8199 45.5103 75.5899 43.8303C76.5099 41.8303 78.7299 40.6303 81.5399 40.6303C83.1699 40.6303 84.8899 41.0303 86.5199 41.7803C89.6699 43.2303 91.8799 45.6903 92.4099 48.2103L95.2799 49.3903L98.5899 47.9603C98.7799 45.9203 100.03 44.0503 101.94 43.1403L109.81 39.3703C110.29 39.1403 110.79 39.0303 111.32 39.0303C112.66 39.0303 113.89 39.8103 114.47 41.0103C114.56 41.1903 114.61 41.3803 114.64 41.5703C114.85 41.7703 115.02 42.0103 115.15 42.2803C115.31 42.6103 115.39 42.9703 115.4 43.3203C115.67 43.5503 115.9 43.8303 116.05 44.1603C116.17 44.4203 116.25 44.7003 116.28 44.9803C116.4 45.1203 116.51 45.2703 116.59 45.4403C117.42 47.1803 116.69 49.2603 114.95 50.0903L107.08 53.8603C106.99 53.9003 106.9 53.9403 106.81 53.9803L106.53 54.0903C106.53 54.0903 106.12 54.2203 106.09 54.2303C106.06 54.2303 105.69 54.3303 105.69 54.3303L105.26 52.5203L105.56 54.3503C105.56 54.3503 105.25 54.4003 105.24 54.4003L104.77 54.4403C104.77 54.4403 104.39 54.4403 104.38 54.4403C104.38 54.4403 103.93 54.4103 103.92 54.4103C103.91 54.4103 103.63 54.3703 103.63 54.3703C103.63 54.3703 103.21 54.2903 103.19 54.2903C103.19 54.2903 102.83 54.2003 102.82 54.2003L103.28 52.4003L102.69 54.1603C102.69 54.1603 102.37 54.0503 102.36 54.0403L102.88 52.2503L102.17 53.9603L101.93 53.8503L102.61 52.1203L102.27 52.7903L102.3 52.8503L102.21 52.8903L101.77 53.7703L101.51 53.6303C101.48 53.6103 101.19 53.4303 101.19 53.4303L79.8799 64.6803C79.2699 64.9703 78.6999 65.1003 78.0999 65.1003" fill="white"/>
<path d="M111.3 40.8702C111.91 40.8702 112.49 41.2102 112.78 41.8002L105.19 45.4402L105.53 46.1502L112.58 42.7702C112.67 42.7302 112.77 42.7102 112.86 42.7102C113.1 42.7102 113.34 42.8502 113.45 43.0802C113.61 43.4102 113.47 43.8002 113.14 43.9502L106.09 47.3302L106.43 48.0302L113.48 44.6502C113.57 44.6102 113.67 44.5802 113.76 44.5802C114 44.5802 114.24 44.7202 114.35 44.9502C114.51 45.2802 114.37 45.6702 114.04 45.8202L106.99 49.2002L107.3 49.8602L114.89 46.2202C115.28 47.0402 114.94 48.0102 114.12 48.4002L108.01 51.3302L106.25 52.1702C106.19 52.2002 106.12 52.2302 106.06 52.2602C106.04 52.2702 106.01 52.2802 105.99 52.2902C105.95 52.3102 105.91 52.3202 105.86 52.3402C105.83 52.3402 105.81 52.3602 105.78 52.3702C105.74 52.3802 105.7 52.4002 105.66 52.4102C105.63 52.4102 105.6 52.4302 105.57 52.4302C105.53 52.4402 105.5 52.4502 105.46 52.4602C105.43 52.4602 105.4 52.4702 105.37 52.4802C105.33 52.4802 105.3 52.5002 105.26 52.5002C105.23 52.5002 105.2 52.5102 105.17 52.5202C105.13 52.5202 105.1 52.5302 105.06 52.5402C105.03 52.5402 105 52.5402 104.97 52.5502C104.94 52.5502 104.9 52.5502 104.86 52.5602C104.83 52.5602 104.8 52.5602 104.77 52.5602C104.73 52.5602 104.7 52.5602 104.66 52.5602C104.63 52.5602 104.6 52.5602 104.57 52.5602C104.53 52.5602 104.5 52.5602 104.47 52.5602C104.47 52.5602 104.41 52.5602 104.38 52.5602C104.35 52.5602 104.31 52.5602 104.28 52.5602C104.25 52.5602 104.22 52.5602 104.19 52.5602C104.16 52.5602 104.12 52.5602 104.09 52.5602C104.06 52.5602 104.03 52.5602 104 52.5502C103.97 52.5502 103.93 52.5502 103.9 52.5402C103.87 52.5402 103.84 52.5402 103.81 52.5302C103.78 52.5302 103.74 52.5202 103.71 52.5102C103.68 52.5102 103.65 52.5002 103.62 52.4902C103.59 52.4902 103.55 52.4802 103.52 52.4702C103.49 52.4702 103.46 52.4502 103.43 52.4502C103.4 52.4502 103.36 52.4302 103.33 52.4202C103.3 52.4202 103.27 52.4002 103.24 52.3902C103.21 52.3802 103.18 52.3702 103.14 52.3602C103.11 52.3502 103.08 52.3402 103.05 52.3302C103.02 52.3202 102.99 52.3102 102.95 52.2902C102.92 52.2802 102.89 52.2702 102.86 52.2502C102.83 52.2402 102.8 52.2202 102.77 52.2102C102.74 52.2002 102.71 52.1802 102.69 52.1702C102.66 52.1602 102.63 52.1402 102.6 52.1302C102.57 52.1202 102.54 52.1002 102.52 52.0802C102.49 52.0602 102.46 52.0502 102.43 52.0302C102.43 52.0302 102.42 52.0302 102.41 52.0202C102.39 52.0102 102.37 51.9902 102.35 51.9802C102.32 51.9602 102.29 51.9402 102.27 51.9302C102.24 51.9102 102.22 51.8902 102.19 51.8802C102.16 51.8602 102.13 51.8402 102.11 51.8202C102.11 51.8202 102.1 51.8202 102.09 51.8102C102.07 51.8002 102.05 51.7802 102.03 51.7702C102 51.7502 101.98 51.7302 101.95 51.7102C101.92 51.6902 101.9 51.6702 101.87 51.6502C101.84 51.6302 101.82 51.6102 101.79 51.5902C101.77 51.5702 101.74 51.5502 101.72 51.5202C101.69 51.5002 101.67 51.4802 101.65 51.4502C101.63 51.4302 101.6 51.4002 101.58 51.3802C101.56 51.3602 101.53 51.3302 101.51 51.3102C101.49 51.2902 101.47 51.2602 101.44 51.2402L98.5501 52.7602L95.3601 54.4402L79.0201 63.0702C78.7201 63.2102 78.4101 63.2802 78.1001 63.2802C77.3101 63.2802 76.5401 62.8302 76.1801 62.0702C75.6701 61.0102 76.1201 59.7402 77.1801 59.2302L92.0901 52.7902L89.7001 51.5802C88.8801 52.3502 87.6001 52.7602 86.1201 52.7602C84.8101 52.7602 83.3501 52.4402 81.9201 51.7802C78.3001 50.1202 76.2101 46.9102 77.2701 44.6102C77.9101 43.2202 79.5401 42.4902 81.5301 42.4902C82.8401 42.4902 84.3001 42.8102 85.7401 43.4702C88.8001 44.8702 90.7601 47.3802 90.6601 49.5102L95.2801 51.4202L100.45 49.1802C100.16 47.4302 101.04 45.6302 102.72 44.8202L102.79 44.7802L110.58 41.0402C110.81 40.9302 111.05 40.8802 111.29 40.8802M111.3 37.1602C110.51 37.1602 109.71 37.3402 108.99 37.6902L101.2 41.4302L101.13 41.4602C98.9901 42.4902 97.4801 44.4302 96.9301 46.6502L95.2601 47.3702L93.9401 46.8302C92.9901 44.1102 90.5801 41.5902 87.3001 40.0902C85.4301 39.2302 83.4401 38.7802 81.5501 38.7802C78.0001 38.7802 75.1501 40.3802 73.9201 43.0602C72.1501 46.9102 74.3701 51.6702 79.0001 54.4102L75.7401 55.8202C75.7401 55.8202 75.6501 55.8602 75.6101 55.8802C72.7101 57.2702 71.4801 60.7602 72.8701 63.6602C73.8401 65.6702 75.9001 66.9702 78.1401 66.9702C79.0201 66.9702 79.8601 66.7802 80.6601 66.4002C80.7001 66.3802 80.7501 66.3602 80.7901 66.3302L97.1301 57.7002L100.32 56.0202L101.21 55.5502L101.27 55.5802L101.44 55.6502L101.62 55.7302L101.79 55.8002L101.97 55.8702L102.15 55.9302L102.33 55.9902L102.51 56.0402L102.68 56.0902L102.86 56.1302L103.05 56.1702L103.23 56.2002L103.42 56.2302L103.6 56.2502L103.79 56.2702L103.98 56.2902H104.17L104.35 56.3102H104.54H104.73H104.92L105.11 56.2902L105.3 56.2702L105.49 56.2502L105.68 56.2302L105.88 56.2002L106.07 56.1602C106.12 56.1502 106.19 56.1402 106.25 56.1202L106.43 56.0802C106.5 56.0602 106.57 56.0402 106.63 56.0302L106.81 55.9802C106.87 55.9602 106.94 55.9402 107.01 55.9102L107.18 55.8502C107.26 55.8202 107.34 55.7902 107.41 55.7602L107.54 55.7102C107.67 55.6602 107.79 55.6002 107.91 55.5402L109.66 54.7002L115.77 51.7702C117.06 51.1502 118.03 50.0702 118.5 48.7202C118.97 47.3702 118.89 45.9202 118.28 44.6402C118.21 44.4902 118.13 44.3502 118.04 44.2102C117.97 43.9202 117.87 43.6402 117.74 43.3602C117.59 43.0402 117.4 42.7502 117.18 42.4802C117.11 42.1402 116.99 41.8002 116.84 41.4702C116.71 41.1902 116.54 40.9302 116.36 40.6902C116.31 40.5202 116.24 40.3602 116.17 40.2002C115.29 38.3602 113.39 37.1702 111.35 37.1702" fill="white"/>
<path d="M12.6299 108.84C11.6099 108.84 10.7799 108.01 10.7799 106.99V98.6696C7.07992 97.5396 4.47992 95.7596 3.04992 93.3596C1.36992 90.5596 1.94992 88.0196 2.01992 87.7396C2.20992 86.9796 2.85992 86.4296 3.63992 86.3496C3.69992 86.3496 3.75992 86.3496 3.81992 86.3496C4.52992 86.3496 5.17992 86.7596 5.48992 87.4096C6.36992 89.2496 8.82992 89.9696 10.7899 90.2396V82.4496C10.7899 81.4296 11.6199 80.5996 12.6399 80.5996H25.1899C35.8299 80.5996 36.6499 86.9296 36.6499 88.8696C36.6499 90.8096 36.0099 92.5396 34.8299 93.9096C36.7699 95.4196 37.8399 97.6296 37.8399 100.26C37.8399 105.64 33.3699 108.85 25.8899 108.85H12.6299V108.84ZM25.3199 100.12C27.1099 100.12 27.1099 99.6596 27.1099 99.4796C27.1099 99.2996 27.1099 98.8396 25.3199 98.8396H21.3499V100.11H25.3199V100.12ZM24.2699 90.3296C25.5899 90.3296 25.8899 90.0196 25.8899 90.0096C25.8899 90.0096 25.9199 89.9396 25.9199 89.7996C25.9199 89.6596 25.8999 89.6196 25.8999 89.6196C25.8999 89.6196 25.5899 89.3096 24.2699 89.3096H21.3599V90.3396H24.2699V90.3296Z" fill="white"/>
<path d="M25.1801 82.4405C31.6301 82.4405 34.7901 85.0705 34.7901 88.8605C34.7901 91.2105 33.6001 93.1005 31.4901 94.1905C34.2601 95.1705 35.9801 97.2805 35.9801 100.26C35.9801 104.5 32.4701 106.99 25.8801 106.99H12.6201V97.2605C2.15005 94.7005 3.80006 88.2005 3.80006 88.2005C5.37006 91.5105 9.87006 92.1705 12.6201 92.2505V82.4505H25.1701L25.1801 82.4405ZM19.5001 92.1905H24.2701C26.5801 92.1905 27.7801 91.3805 27.7801 89.8105C27.7801 88.2405 26.5901 87.4605 24.2701 87.4605H19.5001V92.1905ZM19.5001 101.97H25.3201C27.7101 101.97 28.9701 101.16 28.9701 99.4805C28.9701 97.8005 27.7101 96.9905 25.3201 96.9905H19.5001V101.97ZM25.1801 78.7305H12.6301C10.5801 78.7305 8.92006 80.3905 8.92006 82.4405V87.9005C8.02006 87.5705 7.40006 87.1205 7.15006 86.6005C6.53006 85.3005 5.22006 84.4805 3.80006 84.4805C3.68006 84.4805 3.56006 84.4805 3.44006 84.5005C1.89006 84.6505 0.590055 85.7605 0.210055 87.2805C0.0600551 87.8605 -0.579945 90.9405 1.45006 94.3105C2.95006 96.8005 5.45006 98.7105 8.92006 99.9905V106.98C8.92006 109.03 10.5801 110.69 12.6301 110.69H25.8901C32.5601 110.69 39.7001 107.95 39.7001 100.25C39.7001 97.6905 38.8401 95.4205 37.2701 93.6605C38.0801 92.2505 38.5101 90.6205 38.5101 88.8505C38.5101 83.9605 35.0101 78.7305 25.1901 78.7305" fill="white"/>
<path d="M79.03 108.84C78.42 108.84 77.84 108.54 77.5 108.03L73.6 102.32H72.65V106.99C72.65 108.01 71.82 108.84 70.8 108.84H63.86C62.84 108.84 62.01 108.01 62.01 106.99V88.88C58.28 87.75 55.66 85.96 54.2 83.56C52.51 80.76 53.09 78.21 53.16 77.93C53.35 77.17 54 76.62 54.77 76.54C54.83 76.54 54.89 76.54 54.95 76.54C55.66 76.54 56.31 76.95 56.62 77.6C57.84 80.18 62.34 80.56 64.22 80.6H75.07C82.82 80.6 87.83 84.89 87.83 91.53C87.83 95.03 86.42 97.92 83.81 99.85L87.99 105.95C88.38 106.52 88.42 107.25 88.1 107.86C87.78 108.47 87.15 108.85 86.46 108.85H79.03V108.84ZM74.64 93.24C77.1 93.24 77.1 92.16 77.1 91.52C77.1 90.88 77.1 89.76 74.64 89.76H72.64V93.24H74.64Z" fill="white"/>
<path d="M54.9399 78.3799C56.5799 81.8299 61.5399 82.3799 64.1699 82.4399H75.0699C81.7699 82.4399 85.9799 85.9099 85.9799 91.5199C85.9799 95.1299 84.2299 97.7999 81.1799 99.2699L86.4699 106.99H79.0399L74.5899 100.47H70.7999V106.99H63.8599V87.4599C53.2999 84.9099 54.9599 78.3799 54.9599 78.3799M70.7899 95.0999H74.6499C77.5299 95.0999 78.9599 93.7699 78.9599 91.5199C78.9599 89.2699 77.5199 87.9099 74.6499 87.9099H70.7899V95.0999ZM54.9399 74.6699C54.8199 74.6699 54.6999 74.6699 54.5799 74.6899C53.0299 74.8399 51.7299 75.9499 51.3499 77.4699C51.1999 78.0599 50.5599 81.1399 52.5999 84.5199C54.1099 87.0299 56.6399 88.9399 60.1399 90.2199V106.99C60.1399 109.04 61.7999 110.7 63.8499 110.7H70.7899C72.8399 110.7 74.4999 109.04 74.4999 106.99V106.92L75.9699 109.08C76.6599 110.09 77.8099 110.7 79.0299 110.7H86.4599C87.8399 110.7 89.0999 109.94 89.7399 108.72C90.3799 107.5 90.2899 106.03 89.5199 104.9L86.2699 100.16C88.4699 97.9399 89.6799 94.9499 89.6799 91.5299C89.6799 83.8799 83.8099 78.7399 75.0699 78.7399H64.2199C61.1399 78.6599 58.8199 77.8999 58.2999 76.7899C57.6799 75.4899 56.3699 74.6699 54.9499 74.6699" fill="white"/>
<path d="M138.68 108.84C137.66 108.84 136.83 108.01 136.83 106.99V88.88C133.1 87.75 130.48 85.97 129.03 83.56C127.34 80.76 127.92 78.21 127.99 77.93C128.18 77.17 128.83 76.62 129.6 76.54C129.66 76.54 129.72 76.54 129.78 76.54C130.49 76.54 131.14 76.95 131.45 77.6C132.74 80.31 137.33 80.6 139.24 80.6C139.46 80.6 139.87 80.59 139.89 80.59C139.95 80.59 140.02 80.59 140.09 80.6H150.28C159.59 80.6 165.84 86.28 165.84 94.73C165.84 103.18 159.58 108.86 150.28 108.86H138.67L138.68 108.84ZM150.01 99.59C153.27 99.59 155.13 97.81 155.13 94.71C155.13 91.61 153.26 89.83 150.01 89.83H147.48V99.59H150.01Z" fill="white"/>
<path d="M129.79 78.3799C131.49 81.9599 136.62 82.4399 139.26 82.4399C139.5 82.4399 139.72 82.4399 139.92 82.4299C139.92 82.4299 139.96 82.4299 139.98 82.4399H150.3C158.44 82.4399 164.01 87.1699 164.01 94.7099C164.01 102.25 158.44 106.98 150.3 106.98H138.69V87.4499C128.14 84.8999 129.8 78.3699 129.8 78.3699M145.63 101.44H150.01C154.18 101.44 156.99 98.9499 156.99 94.7099C156.99 90.4699 154.18 87.9799 150.01 87.9799H145.63V101.45M129.79 74.6699C129.67 74.6699 129.55 74.6699 129.43 74.6899C127.88 74.8399 126.58 75.9499 126.2 77.4699C126.05 78.0499 125.42 81.1399 127.45 84.5199C128.96 87.0299 131.49 88.9299 134.98 90.2199V107C134.98 109.05 136.64 110.71 138.69 110.71H150.3C160.56 110.71 167.72 104.14 167.72 94.7299C167.72 85.3199 160.56 78.7499 150.3 78.7499H140.21C140.12 78.7499 140.02 78.7399 139.93 78.7399C139.89 78.7399 139.84 78.7399 139.8 78.7399C139.65 78.7399 139.46 78.7399 139.26 78.7399C136.15 78.7399 133.69 77.9599 133.14 76.7999C132.52 75.4999 131.21 74.6799 129.79 74.6799M149.33 91.6799H150.01C152.94 91.6799 153.28 93.4099 153.28 94.7099C153.28 96.0099 152.94 97.7299 150.01 97.7299H149.33V91.6799Z" fill="white"/>
<path d="M182.03 108.84C181.27 108.84 180.59 108.38 180.31 107.68L178.85 104.07H170.97L169.51 107.68C169.23 108.38 168.55 108.84 167.79 108.84H160.71C160.08 108.84 159.5 108.52 159.16 108C158.82 107.48 158.77 106.81 159.02 106.24L169.85 81.6901C170.15 81.0201 170.81 80.5801 171.55 80.5801H178.39C179.12 80.5801 179.79 81.0101 180.08 81.6801L185.59 94.1301C186.48 93.6501 187.11 93.0401 187.46 92.3001C187.77 91.6501 188.42 91.2401 189.13 91.2401C189.19 91.2401 189.25 91.2401 189.31 91.2401C190.09 91.3201 190.73 91.8701 190.93 92.6301C190.98 92.8101 191.93 96.8001 188.29 100.24L190.94 106.22C191.19 106.79 191.14 107.46 190.8 107.98C190.46 108.51 189.87 108.82 189.25 108.82H182.03V108.84ZM175.32 95.2401L174.91 94.2101L174.5 95.2401H175.33H175.32Z" fill="white"/>
<path d="M178.38 82.4397L184.61 96.5197C186.49 95.9597 188.26 94.9397 189.13 93.0997C189.13 93.0997 190.07 96.7997 186.03 99.7197L189.25 106.98H182.03L180.1 102.21H169.72L167.79 106.98H160.71L171.55 82.4297H178.39L178.38 82.4397ZM171.75 97.0997H178.06L174.9 89.2397L171.74 97.0997M178.38 78.7297H171.54C170.07 78.7297 168.74 79.5997 168.15 80.9397L157.32 105.49C156.81 106.64 156.92 107.96 157.6 109.01C158.29 110.06 159.45 110.69 160.71 110.69H167.79C169.3 110.69 170.66 109.77 171.23 108.37L172.22 105.92H177.6L178.59 108.37C179.16 109.77 180.52 110.69 182.03 110.69H189.25C190.51 110.69 191.67 110.06 192.36 109.01C193.04 107.96 193.15 106.63 192.64 105.49L190.49 100.63C193.09 97.5297 193.2 94.0397 192.73 92.1897C192.34 90.6797 191.05 89.5597 189.5 89.4097C189.38 89.3997 189.26 89.3897 189.14 89.3897C187.97 89.3897 186.87 89.9497 186.18 90.8697L181.78 80.9297C181.19 79.5897 179.86 78.7197 178.39 78.7197" fill="white"/>
<path d="M13.7499 81.4404C12.7299 81.4404 11.8999 80.6104 11.8999 79.5904V71.7904C11.8999 70.7704 12.7299 69.9404 13.7499 69.9404H15.9599C16.9799 69.9404 17.8099 70.7704 17.8099 71.7904V75.9904H19.6799C20.6999 75.9904 21.5299 76.8204 21.5299 77.8404V79.5904C21.5299 80.6104 20.6999 81.4404 19.6799 81.4404H13.7499Z" fill="white"/>
<path d="M15.96 71.7796V77.8296H19.68V79.5796H13.75V71.7796H15.96ZM15.96 68.0696H13.75C11.7 68.0696 10.04 69.7296 10.04 71.7796V79.5796C10.04 81.6296 11.7 83.2896 13.75 83.2896H19.68C21.73 83.2896 23.39 81.6296 23.39 79.5796V77.8296C23.39 75.7796 21.73 74.1196 19.68 74.1196H19.66V71.7696C19.66 69.7196 18 68.0596 15.95 68.0596" fill="white"/>
<path d="M26.4801 81.4397C25.7201 81.4397 25.0401 80.9797 24.7601 80.2797L24.6101 79.9197H23.8101L23.6701 80.2797C23.3901 80.9797 22.7101 81.4397 21.9501 81.4397H19.7001C19.0801 81.4397 18.4901 81.1197 18.1501 80.5997C17.8101 80.0797 17.7501 79.4097 18.0101 78.8397L21.4601 71.0297C21.7601 70.3597 22.4201 69.9297 23.1501 69.9297H25.3201C26.0501 69.9297 26.7201 70.3597 27.0101 71.0297L30.4701 78.8297C30.7301 79.3997 30.6701 80.0697 30.3301 80.5897C29.9901 81.1097 29.4001 81.4297 28.7801 81.4297H26.4801V81.4397Z" fill="white"/>
<path d="M25.3199 71.7803L28.7799 79.5803H26.4799L25.8699 78.0603H22.5699L21.9599 79.5803H19.7099L23.1599 71.7803H25.3299H25.3199ZM23.2099 76.4403H25.2199L24.2199 73.9403L23.2199 76.4403M25.3199 68.0703H23.1499C21.6799 68.0703 20.3499 68.9403 19.7599 70.2803L16.3099 78.0803C15.7999 79.2303 15.9099 80.5503 16.5999 81.6003C17.2799 82.6503 18.4499 83.2803 19.7099 83.2803H21.9599C22.7999 83.2803 23.5899 83.0003 24.2199 82.5103C24.8599 83.0003 25.6499 83.2803 26.4799 83.2803H28.7799C30.0299 83.2803 31.1999 82.6503 31.8899 81.6003C32.5699 80.5503 32.6799 79.2203 32.1699 78.0803L28.7099 70.2803C28.1199 68.9403 26.7899 68.0703 25.3199 68.0703Z" fill="white"/>
<path d="M55.76 108.84C55 108.84 54.33 108.38 54.04 107.68L52.58 104.07H44.7L43.24 107.68C42.96 108.38 42.28 108.84 41.52 108.84H34.44C33.81 108.84 33.23 108.52 32.89 108C32.55 107.48 32.5 106.81 32.75 106.24L43.58 81.6901C43.88 81.0201 44.54 80.5801 45.28 80.5801H52.12C52.85 80.5801 53.52 81.0101 53.81 81.6801L59.33 94.1301C60.22 93.6501 60.85 93.0401 61.2 92.3001C61.51 91.6501 62.16 91.2401 62.87 91.2401C62.93 91.2401 62.99 91.2401 63.05 91.2401C63.83 91.3201 64.48 91.8701 64.67 92.6301C64.72 92.8101 65.67 96.8001 62.03 100.24L64.68 106.22C64.93 106.79 64.88 107.46 64.54 107.98C64.2 108.51 63.61 108.82 62.99 108.82H55.77L55.76 108.84ZM49.06 95.2401L48.65 94.2101L48.24 95.2401H49.07H49.06Z" fill="white"/>
<path d="M52.1099 82.4397L58.3399 96.5197C60.2199 95.9597 61.9899 94.9397 62.8599 93.0997C62.8599 93.0997 63.7999 96.7997 59.7599 99.7197L62.9799 106.98H55.7599L53.8299 102.21H43.4499L41.5199 106.98H34.4399L45.2799 82.4297H52.1199L52.1099 82.4397ZM45.4899 97.0997H51.7999L48.6399 89.2397L45.4799 97.0997M52.1099 78.7297H45.2699C43.7999 78.7297 42.4699 79.5997 41.8799 80.9397L31.0399 105.49C30.5299 106.64 30.6399 107.96 31.3299 109.01C32.0199 110.06 33.1799 110.69 34.4399 110.69H41.5199C43.0299 110.69 44.3899 109.77 44.9599 108.37L45.9499 105.92H51.3299L52.3199 108.37C52.8899 109.77 54.2499 110.69 55.7599 110.69H62.9799C64.2399 110.69 65.3999 110.06 66.0899 109.01C66.7699 107.96 66.8799 106.63 66.3699 105.49L64.2199 100.63C66.8199 97.5297 66.9299 94.0397 66.4599 92.1897C66.0699 90.6797 64.7799 89.5597 63.2299 89.4097C63.1099 89.3997 62.9899 89.3897 62.8699 89.3897C61.6999 89.3897 60.5999 89.9497 59.9099 90.8697L55.5099 80.9297C54.9199 79.5897 53.5899 78.7197 52.1199 78.7197" fill="white"/>
<path d="M130.49 108.84C129.73 108.84 129.06 108.38 128.77 107.68L127.31 104.07H119.43L117.97 107.68C117.69 108.38 117.01 108.84 116.25 108.84H109.17C108.54 108.84 107.96 108.52 107.61 108C107.27 107.48 107.22 106.81 107.47 106.24L118.31 81.6901C118.61 81.0201 119.27 80.5801 120.01 80.5801H126.85C127.58 80.5801 128.25 81.0101 128.54 81.6801L134.05 94.1301C134.94 93.6501 135.57 93.0401 135.93 92.3001C136.24 91.6501 136.89 91.2401 137.6 91.2401C137.66 91.2401 137.72 91.2401 137.78 91.2401C138.56 91.3201 139.2 91.8701 139.39 92.6301C139.44 92.8101 140.39 96.8001 136.75 100.24L139.4 106.22C139.65 106.79 139.6 107.46 139.26 107.98C138.92 108.51 138.33 108.82 137.71 108.82H130.49V108.84ZM123.78 95.2401L123.37 94.2101L122.96 95.2401H123.79H123.78Z" fill="white"/>
<path d="M126.84 82.4397L133.07 96.5197C134.95 95.9597 136.72 94.9397 137.59 93.0997C137.59 93.0997 138.53 96.7997 134.49 99.7197L137.7 106.98H130.48L128.55 102.21H118.17L116.24 106.98H109.16L119.99 82.4297H126.83L126.84 82.4397ZM120.22 97.0997H126.53L123.37 89.2397L120.22 97.0997ZM126.84 78.7297H120C118.53 78.7297 117.2 79.5997 116.61 80.9397L105.78 105.49C105.27 106.64 105.38 107.96 106.06 109.01C106.74 110.06 107.91 110.69 109.17 110.69H116.25C117.76 110.69 119.12 109.77 119.69 108.37L120.68 105.92H126.06L127.05 108.37C127.62 109.77 128.98 110.69 130.49 110.69H137.71C138.96 110.69 140.13 110.06 140.82 109.01C141.5 107.96 141.61 106.63 141.1 105.49L138.95 100.63C141.55 97.5297 141.66 94.0397 141.19 92.1897C140.81 90.6797 139.51 89.5597 137.96 89.4097C137.84 89.3997 137.72 89.3897 137.6 89.3897C136.43 89.3897 135.33 89.9497 134.64 90.8697L130.24 80.9297C129.65 79.5897 128.32 78.7197 126.85 78.7197" fill="white"/>
<path d="M87.4701 108.84C86.4501 108.84 85.6201 108.01 85.6201 106.99V82.4398C85.6201 81.4198 86.4501 80.5898 87.4701 80.5898H100.02C110.66 80.5898 111.48 86.9198 111.48 88.8598C111.48 90.7998 110.84 92.5298 109.66 93.8998C111.6 95.4198 112.67 97.6198 112.67 100.25C112.67 105.63 108.2 108.84 100.72 108.84H87.4601H87.4701ZM100.17 100.12C101.96 100.12 101.96 99.6599 101.96 99.4799C101.96 99.2999 101.96 98.8398 100.17 98.8398H96.2001V100.11H100.17V100.12ZM99.1101 90.3298C100.43 90.3298 100.73 90.0198 100.73 90.0098C100.73 90.0098 100.76 89.9399 100.76 89.7999C100.76 89.6599 100.74 89.6199 100.74 89.6199C100.74 89.6199 100.43 89.3098 99.1101 89.3098H96.2001V90.3398H99.1101V90.3298Z" fill="white"/>
<path d="M100.02 82.4405C106.47 82.4405 109.63 85.0705 109.63 88.8605C109.63 91.2105 108.44 93.1005 106.33 94.1905C109.1 95.1705 110.82 97.2805 110.82 100.26C110.82 104.5 107.31 106.99 100.72 106.99H87.47V82.4405H100.02ZM94.34 92.1905H99.11C101.42 92.1905 102.62 91.3805 102.62 89.8105C102.62 88.2405 101.43 87.4605 99.11 87.4605H94.34V92.1905ZM94.34 101.97H100.16C102.55 101.97 103.81 101.16 103.81 99.4805C103.81 97.8005 102.55 96.9905 100.16 96.9905H94.34V101.97ZM100.02 78.7305H87.47C85.42 78.7305 83.76 80.3905 83.76 82.4405V106.99C83.76 109.04 85.42 110.7 87.47 110.7H100.72C107.4 110.7 114.53 107.96 114.53 100.26C114.53 97.7005 113.67 95.4305 112.1 93.6705C112.91 92.2605 113.33 90.6305 113.33 88.8605C113.33 83.9605 109.83 78.7405 100.02 78.7405" fill="white"/>
<path d="M95.4001 47.2304C95.2301 47.2304 95.0101 47.2304 94.8001 47.2104C94.8001 47.2104 94.2401 47.1704 94.0801 47.1604C94.0801 47.1604 93.5101 47.0904 93.3601 47.0704L93.1001 47.0304C92.9301 47.0004 92.4101 46.9004 92.4101 46.9004C92.1801 46.8504 91.9601 46.8004 91.7401 46.7504C91.7301 46.7504 91.2301 46.6104 91.0701 46.5604L90.4101 46.3404L90.1601 46.2504C90.0201 46.2004 89.5101 45.9904 89.5101 45.9904C89.3101 45.9104 89.1101 45.8204 88.9101 45.7204C88.8901 45.7204 88.4601 45.4904 88.3001 45.4104L87.7101 45.0804L87.4901 44.9504L86.8901 44.5604C86.8901 44.5604 86.3501 44.1704 86.3401 44.1704C86.1701 44.0404 86.0001 43.9104 85.8401 43.7704L85.3401 43.3404L84.8501 42.8804L84.4101 42.4304L84.1701 42.1704C84.0401 42.0304 83.9101 41.8704 83.7701 41.7104C83.7701 41.7104 83.4301 41.2804 83.3401 41.1704L82.9501 40.6304L82.5801 40.0704L82.4101 39.8004C82.3401 39.6904 82.2701 39.5704 82.2001 39.4404C82.1401 39.3304 82.0601 39.2004 82.0001 39.0704C81.9301 38.9304 81.8601 38.8004 81.7901 38.6504L81.5101 38.0404L81.3501 37.6704C80.0401 37.4104 78.8901 36.6304 78.1801 35.4904C76.9101 34.7304 76.0901 33.3404 76.0901 31.8304C76.0901 30.6504 76.5901 29.5204 77.4401 28.7304C78.0301 26.7704 79.7801 25.3304 81.8401 25.1404C82.3101 24.2004 82.8701 23.3204 83.5201 22.4904C83.7401 22.2204 83.9101 22.0104 84.1001 21.8004C84.1101 21.7804 84.2001 21.6904 84.2101 21.6804C84.3801 21.5004 84.5401 21.3204 84.7101 21.1604C84.7201 21.1504 84.8301 21.0504 84.8401 21.0404C85.0401 20.8404 85.2001 20.7004 85.3501 20.5604L85.5401 20.4004C85.7301 20.2304 85.8901 20.1004 86.0401 19.9804C86.0401 19.9804 86.6001 19.5604 86.7501 19.4504C86.7501 19.4504 87.3401 19.0604 87.4901 18.9604L87.8001 18.7704C87.9501 18.6804 88.1101 18.5904 88.2601 18.5104L88.5801 18.3404C88.7401 18.2604 88.9001 18.1804 89.0701 18.1004L89.4101 17.9504C89.5701 17.8804 89.7401 17.8104 89.9001 17.7504L90.2501 17.6104C90.4101 17.5504 90.9601 17.3704 90.9601 17.3704C90.9701 17.3704 91.6701 17.1704 91.6701 17.1704L92.0201 17.0804L92.3901 17.0004C92.6901 16.9404 92.9301 16.9004 93.1701 16.8604C93.1701 16.8604 94.0401 16.7504 94.0501 16.7504L94.6401 16.7104L94.8601 18.5504L94.7801 16.7004C94.7801 16.7004 95.1401 16.6904 95.1501 16.6904H95.5101L96.2401 16.7004L96.9701 16.7504C96.9801 16.7504 97.8401 16.8604 97.8501 16.8604C98.0901 16.9004 98.3301 16.9404 98.5601 16.9904L98.9201 17.0704L99.2801 17.1604L99.6601 17.2604C99.6601 17.2604 99.8001 17.3004 99.8301 17.3104L99.4101 19.1204L99.9801 17.3504C99.9801 17.3504 100.6 17.5604 100.77 17.6204L101.12 17.7504C101.28 17.8104 101.44 17.8804 101.6 17.9504L101.94 18.1004C102.11 18.1804 102.27 18.2604 102.43 18.3404L102.74 18.5004C102.91 18.5904 103.06 18.6804 103.21 18.7704L103.52 18.9604C103.67 19.0504 103.83 19.1604 103.98 19.2604L104.26 19.4504C104.41 19.5604 104.56 19.6704 104.72 19.7904L104.97 19.9804C105.13 20.1104 105.28 20.2404 105.43 20.3604L105.65 20.5504C105.81 20.6904 105.96 20.8404 106.11 20.9804L106.31 21.1704C106.46 21.3204 106.63 21.5004 106.79 21.6704L106.9 21.7904C107.1 22.0204 107.28 22.2304 107.46 22.4504C108.13 23.3004 108.7 24.1904 109.16 25.1204C111.23 25.3004 112.97 26.7404 113.57 28.7104C114.42 29.5104 114.92 30.6304 114.92 31.8104C114.92 33.3204 114.11 34.7104 112.83 35.4704C112.52 35.9604 112.11 36.4004 111.65 36.7504V38.5904C111.65 39.9704 110.53 41.1004 109.14 41.1004C108.7 41.1004 108.29 40.9904 107.93 40.7904C106.56 42.7104 104.78 44.2904 102.69 45.4104L102.47 45.5204C102.29 45.6104 102.1 45.7104 101.92 45.7904L101.66 45.9104C101.49 45.9904 101.3 46.0604 101.12 46.1404L100.87 46.2404C100.67 46.3204 100.46 46.3904 100.24 46.4604L100.06 46.5204C99.8001 46.6004 99.5201 46.6804 99.2401 46.7504C99.2201 46.7504 99.1201 46.7804 99.1001 46.7804C98.8501 46.8404 98.6301 46.8904 98.4001 46.9304L98.1801 46.9704C97.9401 47.0104 97.7401 47.0404 97.5401 47.0704L97.2501 47.1104C97.0401 47.1404 96.8301 47.1504 96.6201 47.1704L96.3701 47.1904C96.0701 47.2104 95.7801 47.2204 95.4801 47.2204C95.4601 47.2204 95.3701 47.2204 95.3701 47.2204M93.8901 38.9104C94.2201 39.4704 94.8201 39.8304 95.5101 39.8304C96.2001 39.8304 96.8001 39.4604 97.1401 38.9104C96.5501 38.5804 96.0001 38.1704 95.5101 37.7004C95.0201 38.1704 94.4801 38.5704 93.8901 38.9004M85.2501 31.9604C86.1801 33.0704 87.2801 34.0204 88.5001 34.7704C89.2801 33.3304 90.4901 32.1504 91.9501 31.4104C92.1801 30.2204 93.2001 29.3704 94.4101 29.3704C94.5101 29.3704 94.7101 29.3904 94.8101 29.4004C95.0301 29.4404 95.2501 29.4504 95.4701 29.4604C94.9001 28.9404 94.3901 28.3804 93.9301 27.7604C90.8001 28.0404 87.8501 29.1404 85.3001 30.9804C85.2701 31.3104 85.2501 31.6304 85.2501 31.9504V31.9604ZM102.53 34.7604C102.79 34.6004 103.05 34.4304 103.3 34.2504C103 34.3504 102.69 34.4304 102.37 34.4804C102.43 34.5704 102.48 34.6704 102.53 34.7704" fill="white"/>
<path d="M95.51 18.5296C95.62 18.5296 95.73 18.5296 95.83 18.5296C95.87 18.5296 95.9 18.5296 95.94 18.5296C96.01 18.5296 96.08 18.5296 96.15 18.5296C96.19 18.5296 96.24 18.5296 96.28 18.5296C96.34 18.5296 96.41 18.5296 96.47 18.5396C96.52 18.5396 96.56 18.5396 96.61 18.5496C96.67 18.5496 96.73 18.5596 96.79 18.5696C96.84 18.5696 96.88 18.5696 96.93 18.5796C96.99 18.5796 97.05 18.5896 97.12 18.5996C97.16 18.5996 97.21 18.6096 97.25 18.6196C97.32 18.6196 97.39 18.6396 97.45 18.6496C97.49 18.6496 97.52 18.6596 97.56 18.6696C97.77 18.6996 97.98 18.7396 98.19 18.7796C98.21 18.7796 98.23 18.7796 98.25 18.7896C98.34 18.8096 98.42 18.8296 98.51 18.8496C98.53 18.8496 98.55 18.8496 98.57 18.8596C98.66 18.8796 98.74 18.8996 98.83 18.9196C98.85 18.9196 98.86 18.9196 98.88 18.9296C98.97 18.9496 99.07 18.9796 99.16 19.0096C99.16 19.0096 99.17 19.0096 99.18 19.0096C99.22 19.0196 99.27 19.0396 99.31 19.0496C99.34 19.0596 99.38 19.0696 99.41 19.0796C99.44 19.0796 99.47 19.0996 99.51 19.1096C99.57 19.1296 99.63 19.1496 99.69 19.1696C99.84 19.2196 99.99 19.2696 100.13 19.3196C100.23 19.3596 100.34 19.3996 100.44 19.4396C100.58 19.4996 100.73 19.5596 100.87 19.6196C100.97 19.6596 101.07 19.7096 101.17 19.7496C101.31 19.8196 101.45 19.8796 101.59 19.9596C101.68 20.0096 101.78 20.0596 101.87 20.1096C102.01 20.1896 102.15 20.2596 102.28 20.3396C102.37 20.3896 102.46 20.4396 102.55 20.4996C102.69 20.5896 102.82 20.6696 102.96 20.7596C103.04 20.8096 103.13 20.8696 103.21 20.9296C103.35 21.0196 103.48 21.1296 103.61 21.2296C103.69 21.2896 103.76 21.3396 103.83 21.3996C103.97 21.5096 104.1 21.6196 104.24 21.7396C104.3 21.7896 104.37 21.8496 104.43 21.9096C104.57 22.0396 104.71 22.1696 104.84 22.2996C104.89 22.3496 104.95 22.3996 105 22.4496C105.15 22.5996 105.29 22.7496 105.43 22.8996C105.47 22.9396 105.5 22.9796 105.54 23.0196C105.7 23.1996 105.86 23.3896 106.02 23.5896C106.02 23.5996 106.04 23.6096 106.05 23.6196C106.71 24.4596 107.28 25.3796 107.73 26.3796C107.73 26.3896 107.73 26.3996 107.75 26.4096C107.84 26.6096 107.93 26.8196 108.01 27.0296C108.24 26.9796 108.48 26.9496 108.73 26.9496C110.36 26.9496 111.72 28.1796 111.93 29.7496C112.63 30.1696 113.09 30.9296 113.09 31.7996C113.09 32.8396 112.43 33.7196 111.51 34.0496C111.19 34.7896 110.58 35.3696 109.82 35.6696V38.5796C109.82 38.9396 109.53 39.2396 109.16 39.2396C108.79 39.2396 108.5 38.9496 108.5 38.5796V35.8696C108.45 35.8696 108.39 35.8696 108.34 35.8496C108.34 35.8496 108.34 35.8596 108.34 35.8696C108.29 36.0296 108.24 36.1896 108.18 36.3396C108.16 36.3896 108.15 36.4396 108.13 36.4896C108.07 36.6596 108.01 36.8196 107.94 36.9796C107.92 37.0196 107.91 37.0596 107.89 37.0996C107.82 37.2696 107.74 37.4396 107.66 37.6096C107.65 37.6396 107.64 37.6696 107.62 37.6896C107.53 37.8796 107.44 38.0596 107.34 38.2396C107.34 38.2396 107.34 38.2596 107.33 38.2696C106.08 40.5896 104.16 42.4996 101.84 43.7496C101.82 43.7596 101.8 43.7696 101.78 43.7796C101.74 43.7996 101.69 43.8196 101.65 43.8496C101.49 43.9296 101.33 44.0096 101.16 44.0896C101.09 44.1196 101.01 44.1596 100.94 44.1896C100.78 44.2596 100.62 44.3296 100.46 44.3896C100.39 44.4196 100.31 44.4496 100.24 44.4796C100.06 44.5496 99.87 44.6196 99.68 44.6796C99.63 44.6996 99.58 44.7096 99.54 44.7296C99.3 44.8096 99.06 44.8796 98.81 44.9396C98.76 44.9496 98.72 44.9596 98.67 44.9696C98.47 45.0196 98.28 45.0596 98.08 45.0996C98 45.1196 97.92 45.1296 97.84 45.1396C97.67 45.1696 97.5 45.1996 97.32 45.2196C97.23 45.2296 97.15 45.2396 97.06 45.2496C96.88 45.2696 96.7 45.2896 96.51 45.2996C96.43 45.2996 96.36 45.3096 96.28 45.3196C96.02 45.3296 95.76 45.3396 95.5 45.3396C95.48 45.3396 95.47 45.3396 95.45 45.3396C95.25 45.3396 95.06 45.3396 94.87 45.3296C94.8 45.3296 94.72 45.3296 94.65 45.3196C94.51 45.3196 94.38 45.2996 94.24 45.2896C94.16 45.2896 94.08 45.2696 94 45.2696C93.87 45.2596 93.74 45.2396 93.61 45.2196C93.53 45.2096 93.46 45.1996 93.38 45.1896C93.23 45.1696 93.08 45.1396 92.94 45.1096C92.88 45.0996 92.83 45.0896 92.77 45.0796C92.57 45.0396 92.38 44.9896 92.19 44.9396C92.13 44.9196 92.07 44.9096 92.01 44.8896C91.87 44.8496 91.74 44.8196 91.61 44.7696C91.53 44.7496 91.46 44.7196 91.38 44.6996C91.26 44.6596 91.14 44.6196 91.02 44.5796C90.95 44.5496 90.87 44.5296 90.8 44.4996C90.68 44.4496 90.56 44.4096 90.44 44.3596C90.37 44.3296 90.31 44.3096 90.24 44.2796C90.06 44.1996 89.88 44.1196 89.71 44.0396C89.67 44.0196 89.63 43.9996 89.59 43.9796C89.45 43.9096 89.32 43.8396 89.18 43.7696C89.11 43.7296 89.04 43.6896 88.97 43.6596C88.86 43.5996 88.76 43.5396 88.66 43.4796C88.59 43.4396 88.52 43.3896 88.45 43.3496C88.35 43.2896 88.25 43.2296 88.15 43.1596C88.08 43.1096 88.01 43.0696 87.95 43.0196C87.84 42.9396 87.73 42.8696 87.62 42.7896C87.57 42.7496 87.52 42.7196 87.46 42.6796C87.31 42.5696 87.16 42.4496 87.02 42.3296C86.96 42.2796 86.9 42.2296 86.84 42.1796C86.75 42.0996 86.66 42.0296 86.57 41.9496C86.51 41.8896 86.44 41.8296 86.38 41.7696C86.3 41.6996 86.22 41.6196 86.14 41.5396C86.08 41.4796 86.01 41.4096 85.95 41.3496C85.87 41.2696 85.79 41.1896 85.72 41.1096C85.66 41.0496 85.6 40.9896 85.55 40.9296C85.43 40.7896 85.31 40.6596 85.19 40.5196C85.14 40.4596 85.09 40.3896 85.04 40.3296C84.97 40.2396 84.89 40.1496 84.82 40.0496C84.76 39.9796 84.71 39.8996 84.66 39.8296C84.6 39.7496 84.54 39.6596 84.48 39.5696C84.43 39.4896 84.37 39.4096 84.32 39.3296C84.26 39.2396 84.21 39.1496 84.15 39.0696C84.1 38.9896 84.05 38.9096 84 38.8296C83.94 38.7296 83.88 38.6296 83.83 38.5296C83.77 38.4196 83.71 38.3096 83.65 38.1996C83.59 38.0796 83.52 37.9496 83.46 37.8296C83.42 37.7496 83.38 37.6596 83.34 37.5796C83.3 37.4796 83.25 37.3896 83.21 37.2896C83.17 37.1996 83.13 37.1096 83.1 37.0196C83.06 36.9296 83.02 36.8296 82.99 36.7296C82.95 36.6396 82.92 36.5496 82.89 36.4596C82.85 36.3596 82.82 36.2496 82.78 36.1496C82.75 36.0596 82.72 35.9796 82.7 35.8896C82.7 35.8896 82.7 35.8796 82.7 35.8696C82.58 35.8896 82.45 35.8896 82.32 35.8896C81.08 35.8896 80.01 35.1396 79.54 34.0696C78.62 33.7296 77.96 32.8496 77.96 31.8196C77.96 30.9496 78.43 30.1896 79.12 29.7696C79.33 28.1896 80.68 26.9696 82.32 26.9696C82.57 26.9696 82.81 26.9996 83.04 27.0496C83.53 25.8096 84.19 24.6596 85 23.6396C85.01 23.6196 85.03 23.5996 85.04 23.5896C85.19 23.3996 85.34 23.2196 85.5 23.0396C85.54 22.9996 85.58 22.9596 85.62 22.9196C85.76 22.7696 85.9 22.6196 86.04 22.4796C86.09 22.4296 86.15 22.3796 86.2 22.3196C86.33 22.1896 86.47 22.0596 86.61 21.9396C86.67 21.8796 86.74 21.8296 86.81 21.7696C86.94 21.6596 87.07 21.5496 87.21 21.4396C87.29 21.3796 87.36 21.3196 87.44 21.2696C87.57 21.1696 87.71 21.0696 87.84 20.9796C87.92 20.9196 88.01 20.8696 88.09 20.8096C88.22 20.7196 88.36 20.6296 88.49 20.5496C88.58 20.4996 88.67 20.4396 88.76 20.3896C88.9 20.3096 89.03 20.2296 89.17 20.1596C89.26 20.1096 89.36 20.0596 89.46 20.0096C89.6 19.9396 89.74 19.8696 89.88 19.7996C89.98 19.7496 90.08 19.7096 90.18 19.6696C90.32 19.6096 90.47 19.5496 90.61 19.4896C90.71 19.4496 90.82 19.4096 90.92 19.3696C91.07 19.3196 91.21 19.2696 91.36 19.2196C91.42 19.1996 91.48 19.1796 91.54 19.1596C91.57 19.1496 91.6 19.1396 91.64 19.1296C91.67 19.1196 91.71 19.1096 91.74 19.0996C91.78 19.0896 91.83 19.0696 91.87 19.0596C91.87 19.0596 91.88 19.0596 91.89 19.0596C91.98 19.0296 92.08 19.0096 92.17 18.9796C92.19 18.9796 92.2 18.9796 92.22 18.9696C92.31 18.9496 92.39 18.9296 92.48 18.9096C92.5 18.9096 92.52 18.8996 92.54 18.8996C92.63 18.8796 92.71 18.8596 92.8 18.8396C92.82 18.8396 92.84 18.8396 92.86 18.8296C93.07 18.7896 93.28 18.7496 93.49 18.7196C93.52 18.7196 93.56 18.7096 93.6 18.6996C93.67 18.6896 93.74 18.6796 93.8 18.6696C93.84 18.6696 93.89 18.6596 93.93 18.6496C93.99 18.6496 94.05 18.6396 94.12 18.6296C94.17 18.6296 94.21 18.6296 94.26 18.6196C94.32 18.6196 94.38 18.6096 94.44 18.5996C94.49 18.5996 94.53 18.5996 94.58 18.5896C94.64 18.5896 94.71 18.5896 94.77 18.5796C94.81 18.5796 94.86 18.5796 94.9 18.5796C94.97 18.5796 95.04 18.5796 95.11 18.5796C95.15 18.5796 95.18 18.5796 95.22 18.5796C95.33 18.5796 95.44 18.5796 95.55 18.5796L95.51 18.5296ZM95.51 21.9096C96.61 21.9096 97.51 21.0896 97.64 20.0296C97.12 19.9396 96.6 19.8796 96.07 19.8496C95.88 19.8496 95.7 19.8396 95.51 19.8396C95.32 19.8396 95.13 19.8396 94.95 19.8496C94.42 19.8796 93.89 19.9396 93.38 20.0296C93.51 21.0896 94.41 21.9096 95.51 21.9096ZM103.29 26.0496C103.3 25.9596 103.31 25.8796 103.31 25.7896C103.31 24.5996 102.35 23.6396 101.16 23.6396C100.31 23.6396 99.58 24.1396 99.23 24.8596C100.62 25.1196 101.98 25.5196 103.29 26.0496ZM87.72 26.0596C89.03 25.5296 90.39 25.1296 91.78 24.8696C91.43 24.1496 90.7 23.6396 89.85 23.6396C88.66 23.6396 87.7 24.5996 87.7 25.7896C87.7 25.8796 87.7 25.9696 87.72 26.0596ZM89.52 37.3796C89.98 34.9296 91.91 32.9896 94.37 32.5296C94.35 32.5296 94.34 32.5296 94.32 32.5296C93.96 32.4696 93.72 32.1396 93.78 31.7796C93.83 31.4596 94.11 31.2296 94.43 31.2296C94.47 31.2296 94.5 31.2296 94.54 31.2296C94.88 31.2796 95.22 31.3096 95.57 31.3096C95.92 31.3096 96.29 31.2796 96.64 31.2196C96.67 31.2196 96.71 31.2196 96.74 31.2196C97.06 31.2196 97.33 31.4496 97.39 31.7696C97.45 32.1296 97.21 32.4596 96.85 32.5196C96.8 32.5196 96.76 32.5296 96.71 32.5396C99.14 33.0196 101.06 34.9496 101.52 37.3896C103.94 36.3496 106.04 34.7096 107.62 32.6496C107.63 32.4196 107.64 32.1896 107.64 31.9696C107.64 31.3696 107.59 30.7896 107.5 30.2196C106.65 30.5396 105.76 30.7396 104.85 30.8196C104.15 31.9596 102.89 32.7196 101.46 32.7196C99.26 32.7196 97.48 30.9396 97.48 28.7396C96.46 27.9596 95.58 26.9896 94.88 25.8696C90.73 25.9996 86.85 27.4196 83.58 29.9896C83.47 30.6396 83.41 31.2996 83.41 31.9796C83.41 32.2096 83.41 32.4396 83.43 32.6596C85.01 34.7196 87.11 36.3696 89.53 37.4096M103.83 29.5396C104.7 29.5396 105.56 29.4196 106.38 29.1796C103.45 27.1896 100 26.0296 96.45 25.8496C98.18 28.1396 100.92 29.5296 103.83 29.5296M95.51 41.6896C97.58 41.6896 99.26 40.0096 99.26 37.9396C99.26 37.8996 99.26 37.8596 99.26 37.8196C97.6 37.3196 96.24 36.1396 95.51 34.5996C94.78 36.1396 93.42 37.3196 91.76 37.8196C91.76 37.8596 91.76 37.8996 91.76 37.9396C91.76 40.0096 93.44 41.6896 95.51 41.6896ZM95.51 14.8196C95.37 14.8196 95.2299 14.8196 95.09 14.8196H94.98L94.68 14.8396H94.54L94.27 14.8596H94.09L93.86 14.8896L93.68 14.9096L93.44 14.9396L93.27 14.9596L93.01 14.9996L92.87 15.0196C92.6 15.0596 92.33 15.1096 92.06 15.1596C92.04 15.1596 92 15.1696 91.98 15.1796C91.88 15.1996 91.76 15.2296 91.65 15.2496C91.64 15.2496 91.59 15.2596 91.58 15.2696L91.24 15.3496L91.18 15.3696C91.06 15.3996 90.94 15.4296 90.82 15.4696C90.73 15.4996 90.66 15.5196 90.6 15.5396L90.49 15.5696L90.36 15.6096C90.29 15.6296 90.21 15.6596 90.13 15.6896C89.96 15.7496 89.77 15.8096 89.59 15.8796C89.46 15.9296 89.33 15.9796 89.2 16.0296C89.01 16.0996 88.83 16.1796 88.65 16.2596C88.52 16.3196 88.39 16.3696 88.27 16.4296C88.09 16.5096 87.91 16.5996 87.74 16.6896C87.61 16.7596 87.49 16.8196 87.37 16.8796C87.19 16.9696 87.02 17.0696 86.85 17.1696C86.73 17.2396 86.62 17.3096 86.51 17.3696C86.33 17.4796 86.16 17.5896 85.99 17.7096C85.85 17.7996 85.76 17.8596 85.67 17.9196C85.49 18.0396 85.32 18.1696 85.15 18.2996C85.03 18.3896 84.95 18.4496 84.86 18.5196C84.68 18.6596 84.51 18.7996 84.34 18.9496C84.23 19.0396 84.16 19.0996 84.09 19.1596C83.91 19.3196 83.74 19.4796 83.57 19.6496C83.48 19.7396 83.42 19.7896 83.37 19.8496C83.18 20.0396 83.01 20.2296 82.83 20.4196L82.69 20.5696C82.48 20.7996 82.29 21.0396 82.1 21.2696L82.04 21.3396C81.51 22.0196 81.03 22.7296 80.6 23.4696C78.4 24.0196 76.59 25.6196 75.79 27.7296C74.79 28.8396 74.2 30.2996 74.2 31.8296C74.2 33.8496 75.21 35.7096 76.82 36.8396C77.61 37.9296 78.71 38.7496 79.97 39.2096C80.02 39.3096 80.06 39.3896 80.1 39.4796C80.17 39.6296 80.25 39.7796 80.34 39.9396C80.41 40.0796 80.49 40.2196 80.57 40.3696C80.64 40.4996 80.72 40.6296 80.79 40.7596C80.85 40.8496 80.9 40.9396 80.96 41.0396C81.05 41.1796 81.12 41.2896 81.19 41.3996C81.26 41.4996 81.33 41.5996 81.39 41.6996C81.46 41.8096 81.54 41.9096 81.62 42.0196C81.7 42.1296 81.77 42.2196 81.83 42.3096C81.91 42.4196 82 42.5296 82.09 42.6396L82.15 42.7096L82.3 42.8996C82.45 43.0796 82.6 43.2496 82.75 43.4196L82.93 43.6196C83.06 43.7596 83.16 43.8696 83.26 43.9696L83.5 44.2096C83.6 44.3096 83.7 44.4096 83.8 44.4996L84.05 44.7296C84.16 44.8296 84.28 44.9296 84.39 45.0296L84.62 45.2196C84.81 45.3696 85 45.5196 85.19 45.6596L85.36 45.7796C85.52 45.8996 85.66 45.9996 85.8 46.0996L86.03 46.2496C86.18 46.3496 86.31 46.4296 86.44 46.5096L86.71 46.6796C86.84 46.7596 86.98 46.8396 87.11 46.9096L87.38 47.0596C87.55 47.1496 87.72 47.2396 87.9 47.3296L88.06 47.4096C88.28 47.5096 88.5 47.6196 88.73 47.7096L88.94 47.7996C89.14 47.8796 89.3 47.9396 89.45 47.9996L89.74 48.0996C89.89 48.1596 90.05 48.2096 90.2 48.2596L90.49 48.3496C90.66 48.3996 90.83 48.4496 91.01 48.4996L91.24 48.5596C91.49 48.6196 91.74 48.6796 91.99 48.7296L92.18 48.7696C92.39 48.8096 92.58 48.8396 92.77 48.8696L93.02 48.9096C93.2299 48.9396 93.4 48.9596 93.57 48.9796L93.87 49.0096C94.05 49.0296 94.22 49.0396 94.4 49.0496L94.68 49.0696C94.91 49.0796 95.15 49.0896 95.38 49.0896C95.41 49.0896 95.45 49.0896 95.48 49.0896C95.81 49.0896 96.14 49.0796 96.47 49.0596L96.7 49.0396C96.98 49.0196 97.22 48.9996 97.45 48.9696L97.78 48.9296C98 48.8996 98.22 48.8596 98.44 48.8296L98.75 48.7796C99.01 48.7296 99.26 48.6696 99.51 48.6096L99.69 48.5696C100 48.4896 100.31 48.3996 100.62 48.2996L100.8 48.2396C101.04 48.1596 101.28 48.0796 101.52 47.9896L101.77 47.8896C102.01 47.7896 102.21 47.7096 102.41 47.6196L102.69 47.4896C102.91 47.3896 103.11 47.2896 103.32 47.1796C103.35 47.1696 103.42 47.1296 103.49 47.0996C103.53 47.0796 103.57 47.0596 103.6 47.0396C105.52 46.0096 107.22 44.6196 108.61 42.9496C108.78 42.9696 108.95 42.9796 109.12 42.9796C111.53 42.9796 113.48 41.0196 113.48 38.6196V37.6096C113.71 37.3696 113.93 37.1196 114.12 36.8596C115.73 35.7296 116.75 33.8696 116.75 31.8496C116.75 30.3296 116.17 28.8596 115.16 27.7496C114.35 25.6296 112.54 24.0296 110.34 23.4896C109.92 22.7496 109.44 22.0396 108.91 21.3696C108.89 21.3496 108.87 21.3196 108.85 21.2996C108.66 21.0696 108.47 20.8296 108.26 20.5996C108.22 20.5496 108.17 20.4996 108.12 20.4496C107.94 20.2496 107.76 20.0596 107.57 19.8696C107.52 19.8196 107.46 19.7596 107.4 19.6996C107.2 19.5096 107.02 19.3396 106.85 19.1796C106.78 19.1196 106.71 19.0596 106.65 18.9996C106.43 18.8196 106.26 18.6696 106.09 18.5296C106.01 18.4696 105.93 18.4096 105.86 18.3496L105.81 18.3096C105.64 18.1796 105.47 18.0596 105.3 17.9296C105.2 17.8596 105.11 17.7996 105.02 17.7396C104.82 17.5996 104.64 17.4896 104.47 17.3796C104.37 17.3196 104.26 17.2496 104.15 17.1896C103.96 17.0796 103.78 16.9796 103.6 16.8796C103.48 16.8096 103.36 16.7496 103.24 16.6896C103.06 16.5996 102.88 16.5096 102.7 16.4296C102.57 16.3696 102.45 16.3096 102.32 16.2596C102.14 16.1796 101.96 16.1096 101.77 16.0296C101.64 15.9796 101.51 15.9296 101.37 15.8796C101.19 15.8096 101 15.7496 100.81 15.6896C100.75 15.6696 100.67 15.6396 100.58 15.6096C100.55 15.6096 100.48 15.5796 100.45 15.5696L100.36 15.5396C100.3 15.5196 100.24 15.4996 100.17 15.4796C100.02 15.4396 99.9 15.4096 99.78 15.3696C99.78 15.3696 99.72 15.3496 99.71 15.3496C99.6 15.3196 99.49 15.2996 99.38 15.2696L99.3 15.2496C99.19 15.2296 99.08 15.1996 98.97 15.1796C98.97 15.1796 98.9 15.1696 98.9 15.1596C98.64 15.1096 98.37 15.0596 98.1 15.0196L97.98 14.9996L97.7 14.9596L97.56 14.9396L97.29 14.9096L97.12 14.8896L96.88 14.8696H96.7L96.46 14.8396H96.29L96.02 14.8196H95.88C95.74 14.8196 95.61 14.8096 95.47 14.8096M87.56 31.7096C88.23 31.3096 88.92 30.9696 89.64 30.6796C89.06 31.1196 88.53 31.6096 88.06 32.1596C87.89 32.0196 87.72 31.8596 87.56 31.7096Z" fill="white"/>
<path d="M86.7001 32.6895C86.0301 32.6595 85.4101 32.3795 84.9601 31.8795C84.5101 31.3895 84.2701 30.7495 84.3001 30.0795C84.3501 28.7295 85.4601 27.6795 86.8101 27.6795H87.2001C88.5501 27.6795 89.8701 27.3195 91.0201 26.6295C91.4201 26.3895 91.8601 26.2695 92.3201 26.2695C93.1901 26.2695 94.0101 26.7295 94.4701 27.4795C94.8201 28.0495 94.9201 28.7295 94.7601 29.3795C94.6001 30.0295 94.2001 30.5795 93.6201 30.9295C91.6901 32.0995 89.4701 32.7195 87.2001 32.7195C87.0301 32.7195 86.8701 32.7195 86.7001 32.7195" fill="white"/>
<path d="M92.3101 28.1202C92.5301 28.1202 92.7501 28.2302 92.8701 28.4302C93.0601 28.7402 92.9601 29.1402 92.6501 29.3302C91.0101 30.3202 89.1201 30.8502 87.1901 30.8502C87.0501 30.8502 86.9101 30.8502 86.7701 30.8502C86.4101 30.8402 86.1301 30.5302 86.1401 30.1702C86.1601 29.8202 86.4501 29.5402 86.8001 29.5402H86.8201C86.9401 29.5402 87.0601 29.5402 87.1901 29.5402C88.8601 29.5402 90.5301 29.0802 91.9701 28.2102C92.0801 28.1402 92.1901 28.1102 92.3101 28.1102M92.3101 24.4102C91.5201 24.4102 90.7401 24.6302 90.0601 25.0402C89.2101 25.5602 88.1901 25.8402 87.1901 25.8402C87.1201 25.8402 87.0401 25.8402 86.9701 25.8402C86.9201 25.8402 86.8501 25.8402 86.8001 25.8402C84.4501 25.8402 82.5301 27.6802 82.4401 30.0202C82.3901 31.1902 82.8001 32.3002 83.5901 33.1602C84.3801 34.0202 85.4601 34.5202 86.6201 34.5602C86.8101 34.5602 87.0001 34.5702 87.1901 34.5702C89.7901 34.5702 92.3501 33.8602 94.5701 32.5102C95.5701 31.9102 96.2701 30.9502 96.5501 29.8202C96.8301 28.6902 96.6501 27.5202 96.0401 26.5202C95.2501 25.2202 93.8301 24.4202 92.3101 24.4202" fill="white"/>
<path d="M95.5601 40.9905C94.7401 40.9905 93.9101 40.8805 93.1201 40.6805C92.4701 40.5105 91.9301 40.1005 91.5901 39.5205C91.2501 38.9405 91.1601 38.2605 91.3301 37.6205C91.6201 36.5205 92.6101 35.7505 93.7601 35.7505C93.9701 35.7505 94.1901 35.7805 94.3901 35.8305C94.7701 35.9305 95.1601 35.9805 95.5601 35.9805C95.9601 35.9805 96.3801 35.9305 96.7701 35.8205C96.9801 35.7605 97.2001 35.7305 97.4201 35.7305C98.5501 35.7305 99.5401 36.4905 99.8401 37.5805C100.01 38.2305 99.9301 38.9105 99.5901 39.4905C99.2501 40.0705 98.7101 40.4905 98.0701 40.6605C97.2601 40.8805 96.4101 40.9905 95.5601 40.9905Z" fill="white"/>
<path d="M97.4201 37.5799C97.7101 37.5799 97.9701 37.7699 98.0501 38.0699C98.1401 38.4199 97.9401 38.7799 97.5901 38.8699C96.9301 39.0499 96.2501 39.1399 95.5601 39.1399C94.8701 39.1399 94.2301 39.0599 93.5901 38.8899C93.2401 38.7999 93.0301 38.4399 93.1201 38.0899C93.2001 37.7899 93.4601 37.5999 93.7501 37.5999C93.8101 37.5999 93.8601 37.5999 93.9201 37.6199C94.4501 37.7599 95.0101 37.8299 95.5601 37.8299C96.1101 37.8299 96.7001 37.7599 97.2501 37.6099C97.3101 37.5899 97.3701 37.5899 97.4201 37.5899M97.4201 33.8799C97.0301 33.8799 96.6501 33.9299 96.2701 34.0299C96.0501 34.0899 95.8001 34.1199 95.5501 34.1199C95.3001 34.1199 95.0701 34.0899 94.8501 34.0299C94.4901 33.9399 94.1201 33.8899 93.7501 33.8899C91.7701 33.8899 90.0301 35.2299 89.5301 37.1499C88.9201 39.4799 90.3201 41.8699 92.6501 42.4699C93.6001 42.7199 94.5801 42.8399 95.5601 42.8399C96.5401 42.8399 97.5801 42.7099 98.5501 42.4499C99.6701 42.1499 100.61 41.4299 101.2 40.4199C101.78 39.4099 101.93 38.2299 101.63 37.1099C101.12 35.2099 99.3901 33.8799 97.4201 33.8799Z" fill="white"/>
<path d="M106.81 41.3903L108.68 40.4903C108.36 40.4103 108.06 40.2503 107.83 40.0303C107.52 40.5003 107.18 40.9503 106.82 41.3903" fill="#1D1D1B"/>
<path d="M95.51 46.6802C93.89 46.6802 92.31 46.4202 90.8 45.9102C91.39 46.7702 91.77 47.6802 91.91 48.5802L95.26 49.9602L99.09 48.3102C99.12 47.5302 99.32 46.7702 99.66 46.0802C98.33 46.4702 96.94 46.6702 95.51 46.6702" fill="#1D1D1B"/>
<path d="M94.8799 9.44969C71.3999 -3.46031 57.1899 9.44969 57.1899 9.44969V73.4797C57.1899 73.4797 71.3999 60.5697 94.8799 73.4797C118.36 86.3897 134.17 73.4797 134.17 73.4797V9.44969C134.17 9.44969 118.36 22.3697 94.8799 9.44969ZM116.38 62.5497C115.82 63.7697 114.59 64.5497 113.25 64.5497C112.75 64.5497 112.27 64.4397 111.82 64.2397H111.8L111.78 64.2197L95.3799 55.9097L79.6399 64.2197H79.6199L79.5999 64.2397C79.1299 64.4697 78.6299 64.5797 78.1199 64.5797C76.8099 64.5797 75.5899 63.8097 75.0199 62.6297C74.6199 61.7997 74.5699 60.8697 74.8799 59.9997C75.1799 59.1297 75.8099 58.4397 76.6399 58.0397H76.6599L76.6799 58.0197L85.8699 54.0497C84.3999 54.0097 82.8599 53.6397 81.3899 52.9597C77.0399 50.9597 74.7199 47.0497 76.0899 44.0597C76.9199 42.2497 78.9599 41.1697 81.5399 41.1697C82.4599 41.1697 83.4199 41.3097 84.3699 41.5697C83.2499 40.2697 82.3499 38.7697 81.7399 37.1697C80.4199 36.9997 79.2499 36.2297 78.5599 35.0797C77.3899 34.4397 76.6299 33.1897 76.6299 31.8297C76.6299 30.7297 77.0999 29.7197 77.9199 29.0197C78.4399 27.0997 80.1699 25.7097 82.1899 25.6597C83.9899 21.8597 87.3999 18.9497 91.4799 17.7897H91.4999C91.5999 17.7597 91.7099 17.7297 91.8199 17.6997H91.8699C91.9599 17.6597 92.0599 17.6397 92.1699 17.6097H92.2199C92.3099 17.5797 92.4099 17.5597 92.5199 17.5297H92.5699C92.7999 17.4697 93.0299 17.4297 93.2599 17.3997H93.3399L93.3799 17.3797C93.4599 17.3697 93.5299 17.3597 93.5999 17.3497H93.7099L93.7399 17.3297C93.8099 17.3297 93.8799 17.3097 93.9499 17.3097H94.0999C94.1699 17.2897 94.2399 17.2797 94.2999 17.2797H94.4499C94.5199 17.2597 94.5899 17.2597 94.6599 17.2597H94.6899H94.8099C94.8899 17.2597 94.9699 17.2597 95.0499 17.2597H95.0899H95.1699C95.2899 17.2597 95.4099 17.2597 95.5299 17.2597C95.6499 17.2597 95.7699 17.2597 95.8899 17.2597H95.9699H96.0099C96.0899 17.2597 96.1699 17.2597 96.2399 17.2597H96.3599H96.3799C96.4499 17.2597 96.5199 17.2597 96.5899 17.2697H96.7399C96.8099 17.2897 96.8799 17.2897 96.9399 17.2997H97.0899C97.1599 17.3197 97.2299 17.3297 97.2899 17.3397H97.3199L97.4299 17.3597C97.4999 17.3697 97.5799 17.3797 97.6499 17.3897H97.6799L97.7699 17.4097C97.9999 17.4497 98.2299 17.4897 98.4599 17.5297H98.5199C98.6199 17.5597 98.7099 17.5797 98.8099 17.6097H98.8599L98.8799 17.6297C98.9699 17.6497 99.0699 17.6697 99.1599 17.6997L99.2199 17.7197C99.3199 17.7497 99.4299 17.7697 99.5299 17.7997H99.5499C103.63 18.9597 107.04 21.8697 108.84 25.6697C110.86 25.7197 112.6 27.1097 113.11 29.0297C113.93 29.7297 114.4 30.7397 114.4 31.8397C114.4 33.1997 113.64 34.4497 112.47 35.0897C112.14 35.6497 111.68 36.1297 111.14 36.4897V38.6097C111.14 38.9697 111.03 39.3097 110.86 39.6097C111.01 39.5897 111.16 39.5697 111.31 39.5697C112.44 39.5697 113.48 40.2297 113.97 41.2397L114.38 42.0997C114.48 42.2197 114.57 42.3597 114.64 42.5097C114.8 42.8497 114.86 43.2197 114.82 43.5797C115.13 43.7797 115.38 44.0497 115.54 44.3897C115.61 44.5397 115.66 44.6997 115.7 44.8597L116.09 45.6697C116.43 46.3797 116.47 47.1797 116.21 47.9197C115.95 48.6597 115.41 49.2597 114.7 49.5997L108.59 52.5297L106.83 53.3697C106.75 53.4097 106.66 53.4497 106.58 53.4797C106.55 53.4897 106.53 53.4997 106.49 53.5197H106.47C106.47 53.5197 106.37 53.5697 106.32 53.5797C106.29 53.5897 106.26 53.5997 106.22 53.6197H106.2C106.2 53.6197 106.11 53.6597 106.07 53.6697C106.04 53.6697 106.01 53.6897 105.96 53.6997H105.94C105.94 53.6997 105.86 53.7297 105.82 53.7397C105.79 53.7397 105.75 53.7597 105.72 53.7597H105.7L105.68 53.7697C105.64 53.7697 105.6 53.7897 105.56 53.7997C105.53 53.7997 105.49 53.8097 105.46 53.8197H105.44H105.42C105.38 53.8197 105.34 53.8297 105.3 53.8397C105.27 53.8397 105.23 53.8397 105.2 53.8497H105.18H105.16C105.12 53.8497 105.08 53.8597 105.04 53.8597C105.01 53.8597 104.97 53.8597 104.94 53.8597H104.92H104.9C104.86 53.8597 104.82 53.8597 104.78 53.8597L114.67 57.9397H114.69L114.71 57.9597C115.54 58.3397 116.18 59.0297 116.5 59.8897C116.82 60.7497 116.78 61.6897 116.4 62.5197" fill="#1D1D1B"/>
<path d="M114.14 59.1803L99.8399 53.2803C99.0199 53.6003 97.6599 54.1903 96.4299 54.9703L112.36 63.0503C113.43 63.5403 114.69 63.0703 115.18 62.0003C115.67 60.9303 115.2 59.6703 114.13 59.1803" fill="#1D1D1B"/>
<path d="M95.36 54.4298L98.55 52.7498L101.44 51.2298C101.46 51.2498 101.48 51.2798 101.51 51.2998C101.53 51.3198 101.56 51.3498 101.58 51.3698C101.6 51.3898 101.63 51.4198 101.65 51.4398C101.68 51.4598 101.7 51.4898 101.73 51.5098C101.75 51.5298 101.78 51.5498 101.8 51.5798C101.83 51.5998 101.85 51.6198 101.88 51.6498C101.91 51.6698 101.93 51.6898 101.96 51.7098C101.99 51.7298 102.01 51.7498 102.04 51.7698C102.06 51.7798 102.08 51.7998 102.1 51.8098C102.1 51.8098 102.11 51.8198 102.12 51.8198C102.15 51.8398 102.18 51.8598 102.2 51.8798C102.23 51.8998 102.25 51.9198 102.28 51.9298C102.31 51.9498 102.34 51.9698 102.37 51.9798C102.39 51.9898 102.41 52.0098 102.43 52.0198C102.43 52.0198 102.45 52.0198 102.45 52.0298C102.48 52.0498 102.51 52.0598 102.54 52.0798C102.57 52.0998 102.6 52.1098 102.62 52.1298C102.65 52.1498 102.68 52.1598 102.71 52.1698C102.74 52.1798 102.77 52.1998 102.79 52.2098C102.82 52.2198 102.85 52.2398 102.88 52.2498C102.91 52.2598 102.94 52.2798 102.97 52.2898C103 52.2998 103.03 52.3098 103.06 52.3298C103.09 52.3398 103.12 52.3498 103.15 52.3598C103.18 52.3698 103.21 52.3798 103.25 52.3898C103.28 52.3998 103.31 52.4098 103.34 52.4198C103.37 52.4198 103.41 52.4398 103.44 52.4498C103.47 52.4498 103.5 52.4698 103.53 52.4698C103.56 52.4698 103.6 52.4898 103.63 52.4898C103.66 52.4898 103.69 52.4998 103.72 52.5098C103.75 52.5098 103.79 52.5198 103.82 52.5298C103.85 52.5298 103.88 52.5398 103.91 52.5398C103.94 52.5398 103.98 52.5398 104.01 52.5498C104.04 52.5498 104.07 52.5498 104.1 52.5598C104.13 52.5598 104.17 52.5598 104.2 52.5598C104.23 52.5598 104.26 52.5598 104.29 52.5598C104.33 52.5598 104.36 52.5598 104.39 52.5598C104.42 52.5598 104.45 52.5598 104.48 52.5598C104.52 52.5598 104.55 52.5598 104.58 52.5598C104.61 52.5598 104.64 52.5598 104.67 52.5598C104.71 52.5598 104.74 52.5598 104.78 52.5598C104.81 52.5598 104.84 52.5598 104.87 52.5598C104.91 52.5598 104.94 52.5598 104.98 52.5498C105.01 52.5498 105.04 52.5498 105.07 52.5398C105.11 52.5398 105.14 52.5298 105.18 52.5198C105.21 52.5198 105.24 52.5098 105.27 52.4998C105.31 52.4998 105.34 52.4798 105.38 52.4798C105.41 52.4798 105.44 52.4698 105.47 52.4598C105.51 52.4598 105.54 52.4398 105.58 52.4298C105.61 52.4298 105.64 52.4198 105.67 52.4098C105.71 52.3998 105.75 52.3798 105.79 52.3698C105.82 52.3698 105.84 52.3498 105.87 52.3398C105.91 52.3198 105.95 52.3098 105.99 52.2898C106.01 52.2898 106.04 52.2698 106.06 52.2598C106.12 52.2298 106.19 52.2098 106.25 52.1698L108.01 51.3298L114.12 48.3998C114.94 48.0098 115.28 47.0298 114.89 46.2198L107.3 49.8598L106.99 49.1998L114.04 45.8198C114.37 45.6598 114.5 45.2698 114.35 44.9498C114.19 44.6198 113.8 44.4898 113.48 44.6398L106.43 48.0198L106.09 47.3198L113.14 43.9398C113.47 43.7798 113.6 43.3898 113.45 43.0698C113.29 42.7398 112.9 42.6098 112.58 42.7598L105.53 46.1398L105.19 45.4298L112.78 41.7898C112.39 40.9698 111.41 40.6298 110.6 41.0198L102.8 44.7598L102.73 44.7998C101.05 45.6098 100.17 47.4098 100.46 49.1598L95.29 51.3998L90.67 49.4898C90.77 47.3598 88.81 44.8598 85.75 43.4498C82.13 41.7898 78.34 42.2998 77.28 44.5998C76.23 46.8898 78.31 50.0998 81.93 51.7698C84.99 53.1698 88.16 53.0298 89.71 51.5698L92.1 52.7798L77.19 59.2298C76.13 59.7398 75.68 61.0098 76.19 62.0698C76.7 63.1298 77.97 63.5798 79.03 63.0698L95.37 54.4398L95.36 54.4298Z" fill="#1D1D1B"/>
<path d="M31.5001 94.1797C33.6001 93.0897 34.8001 91.1997 34.8001 88.8497C34.8001 85.0597 31.6401 82.4297 25.1901 82.4297H12.6401V92.2297C9.88011 92.1497 5.39011 91.4897 3.82011 88.1797C3.82011 88.1797 2.17011 94.6797 12.6401 97.2397V106.97H25.8901C32.4801 106.97 35.9901 104.48 35.9901 100.24C35.9901 97.2597 34.2701 95.1597 31.5001 94.1697M19.5001 87.4497H24.2701C26.5801 87.4497 27.7801 88.2597 27.7801 89.7997C27.7801 91.3397 26.5901 92.1797 24.2701 92.1797H19.5001V87.4497ZM25.3201 101.97H19.5001V96.9897H25.3201C27.7101 96.9897 28.9701 97.7997 28.9701 99.4797C28.9701 101.16 27.7101 101.97 25.3201 101.97Z" fill="#1D1D1B"/>
<path d="M85.9699 91.5199C85.9699 85.9099 81.7599 82.4399 75.0599 82.4399H64.1599C61.5299 82.3799 56.5699 81.8199 54.9299 78.3799C54.9299 78.3799 53.2699 84.9099 63.8299 87.4599V106.99H70.7699V100.47H74.5599L79.0099 106.99H86.4399L81.1499 99.2799C84.1999 97.8099 85.9499 95.1399 85.9499 91.5299M74.6399 95.0999H70.7799V87.9099H74.6399C77.5199 87.9099 78.9499 89.2399 78.9499 91.5199C78.9499 93.7999 77.5099 95.0999 74.6399 95.0999Z" fill="#1D1D1B"/>
<path d="M150.29 82.4399H139.97C139.97 82.4399 139.93 82.4299 139.91 82.4299C137.58 82.4999 131.64 82.2899 129.79 78.3799C129.79 78.3799 128.13 84.9099 138.68 87.4599V106.99H150.29C158.42 106.99 164 102.26 164 94.7199C164 87.1799 158.42 82.4499 150.29 82.4499M150.01 101.44H145.63V87.9699H150.01C154.18 87.9699 156.99 90.4599 156.99 94.6999C156.99 98.9399 154.18 101.43 150.01 101.43" fill="#1D1D1B"/>
<path d="M186.03 99.7197C190.07 96.7997 189.13 93.0997 189.13 93.0997C188.26 94.9397 186.48 95.9597 184.61 96.5097L178.38 82.4297H171.54L160.71 106.98H167.79L169.72 102.21H180.1L182.03 106.98H189.25L186.03 99.7197ZM171.75 97.0897L174.91 89.2397L178.07 97.0897H171.76H171.75Z" fill="#1D1D1B"/>
<path d="M19.68 77.8303H15.96V71.7803H13.75V79.5803H19.68V77.8303Z" fill="#1D1D1B"/>
<path d="M22.57 78.07H25.87L26.48 79.59H28.78L25.32 71.79H23.15L19.71 79.59H21.96L22.57 78.07ZM24.22 73.94L25.22 76.44H23.21L24.21 73.94H24.22Z" fill="#1D1D1B"/>
<path d="M62.8699 93.0997C61.9999 94.9397 60.2199 95.9597 58.3499 96.5097L52.1199 82.4297H45.2799L34.45 106.98H41.5299L43.4599 102.21H53.84L55.77 106.98H62.99L59.7799 99.7197C63.82 96.7997 62.88 93.0997 62.88 93.0997M45.49 97.0897L48.65 89.2397L51.81 97.0897H45.5H45.49Z" fill="#1D1D1B"/>
<path d="M137.6 93.0997C136.73 94.9397 134.95 95.9597 133.08 96.5097L126.85 82.4297H120.01L109.18 106.98H116.26L118.19 102.21H128.57L130.5 106.98H137.72L134.5 99.7197C138.54 96.7997 137.6 93.0997 137.6 93.0997ZM120.22 97.0897L123.38 89.2397L126.54 97.0897H120.23H120.22Z" fill="#1D1D1B"/>
<path d="M106.34 94.1797C108.44 93.0897 109.64 91.1997 109.64 88.8497C109.64 85.0597 106.48 82.4297 100.03 82.4297H87.48V106.98H100.74C107.33 106.98 110.84 104.49 110.84 100.25C110.84 97.2697 109.12 95.1697 106.35 94.1797M94.34 87.4497H99.11C101.42 87.4497 102.62 88.2597 102.62 89.7997C102.62 91.3397 101.43 92.1797 99.11 92.1797H94.34V87.4497ZM100.16 101.97H94.34V96.9897H100.16C102.55 96.9897 103.81 97.7997 103.81 99.4797C103.81 101.16 102.55 101.97 100.16 101.97Z" fill="#1D1D1B"/>
<path d="M111.93 29.7698C111.72 28.1898 110.37 26.9698 108.73 26.9698C108.48 26.9698 108.24 26.9998 108.01 27.0498C107.93 26.8398 107.84 26.6398 107.75 26.4298C107.75 26.4198 107.75 26.4098 107.74 26.3898C107.29 25.3998 106.72 24.4698 106.06 23.6298C106.06 23.6198 106.04 23.6098 106.03 23.5998C105.87 23.3998 105.71 23.2098 105.55 23.0298C105.51 22.9898 105.48 22.9498 105.44 22.9098C105.3 22.7598 105.16 22.5998 105.01 22.4598C104.96 22.4098 104.91 22.3598 104.85 22.3098C104.71 22.1798 104.58 22.0498 104.44 21.9298C104.38 21.8698 104.31 21.8198 104.25 21.7598C104.12 21.6498 103.98 21.5298 103.84 21.4198C103.77 21.3598 103.69 21.3098 103.62 21.2498C103.49 21.1498 103.35 21.0498 103.21 20.9498C103.13 20.8898 103.04 20.8398 102.96 20.7798C102.82 20.6898 102.69 20.5998 102.55 20.5198C102.46 20.4698 102.37 20.4098 102.28 20.3598C102.14 20.2798 102 20.1998 101.87 20.1298C101.77 20.0798 101.68 20.0298 101.58 19.9798C101.44 19.9098 101.3 19.8398 101.16 19.7698C101.06 19.7198 100.96 19.6798 100.86 19.6398C100.72 19.5798 100.57 19.5198 100.43 19.4598C100.33 19.4198 100.22 19.3798 100.12 19.3398C99.9699 19.2898 99.8299 19.2398 99.6799 19.1898C99.6199 19.1698 99.5599 19.1498 99.4999 19.1298C99.4699 19.1198 99.4399 19.1098 99.3999 19.0998C99.3699 19.0898 99.3299 19.0798 99.2999 19.0698C99.2599 19.0598 99.2099 19.0398 99.1699 19.0298C99.1699 19.0298 99.1599 19.0298 99.1499 19.0298C99.0599 18.9998 98.9599 18.9798 98.8699 18.9498C98.8499 18.9498 98.8399 18.9498 98.8199 18.9398C98.7299 18.9198 98.6499 18.8998 98.5599 18.8798C98.5399 18.8798 98.5199 18.8698 98.4999 18.8698C98.4099 18.8498 98.3299 18.8298 98.2399 18.8098C98.2199 18.8098 98.1999 18.8098 98.1799 18.7998C97.9699 18.7598 97.7599 18.7198 97.5499 18.6898C97.5099 18.6898 97.4799 18.6798 97.4399 18.6698C97.3699 18.6598 97.2999 18.6498 97.2399 18.6398C97.1999 18.6398 97.1499 18.6298 97.1099 18.6198C97.0499 18.6198 96.9899 18.6098 96.9199 18.5998C96.8799 18.5998 96.8299 18.5998 96.7799 18.5898C96.7199 18.5898 96.6599 18.5798 96.5899 18.5698C96.5499 18.5698 96.4999 18.5698 96.4499 18.5598C96.3899 18.5598 96.3199 18.5598 96.2599 18.5498C96.2199 18.5498 96.1699 18.5498 96.1299 18.5498C96.0599 18.5498 95.9899 18.5498 95.9199 18.5498C95.8799 18.5498 95.8499 18.5498 95.8099 18.5498C95.6999 18.5498 95.5899 18.5498 95.4799 18.5498C95.3699 18.5498 95.2599 18.5498 95.1599 18.5498C95.1199 18.5498 95.0899 18.5498 95.0499 18.5498C94.9799 18.5498 94.9099 18.5498 94.8399 18.5498C94.7999 18.5498 94.7499 18.5498 94.7099 18.5498C94.6499 18.5498 94.5799 18.5498 94.5199 18.5598C94.4699 18.5598 94.4299 18.5598 94.3799 18.5698C94.3199 18.5698 94.2599 18.5798 94.1899 18.5898C94.1499 18.5898 94.0999 18.5898 94.0499 18.5998C93.9899 18.5998 93.9299 18.6098 93.8599 18.6198C93.8199 18.6198 93.7699 18.6298 93.7299 18.6398C93.6599 18.6398 93.5899 18.6598 93.5199 18.6698C93.4899 18.6698 93.4499 18.6798 93.4099 18.6898C93.1999 18.7198 92.9899 18.7598 92.7799 18.7998C92.7599 18.7998 92.7399 18.7998 92.7199 18.8098C92.6299 18.8298 92.5399 18.8498 92.4599 18.8698C92.4399 18.8698 92.4199 18.8698 92.3999 18.8798C92.3099 18.8998 92.2299 18.9198 92.1399 18.9398C92.1199 18.9398 92.1099 18.9398 92.0899 18.9498C91.9999 18.9698 91.8999 18.9998 91.8099 19.0298C91.8099 19.0298 91.7999 19.0298 91.7899 19.0298C91.7499 19.0398 91.6999 19.0598 91.6599 19.0698C91.6299 19.0798 91.5899 19.0898 91.5599 19.0998C91.5299 19.0998 91.4999 19.1198 91.4599 19.1298C91.3999 19.1498 91.3399 19.1698 91.2799 19.1898C91.1299 19.2398 90.9799 19.2898 90.8399 19.3398C90.7399 19.3798 90.6299 19.4198 90.5299 19.4598C90.3899 19.5198 90.2399 19.5798 90.0999 19.6398C89.9999 19.6798 89.8999 19.7298 89.7999 19.7798C89.6599 19.8498 89.5199 19.9098 89.3799 19.9798C89.2899 20.0298 89.1899 20.0798 89.0999 20.1298C88.9599 20.2098 88.8199 20.2798 88.6899 20.3598C88.5999 20.4098 88.5099 20.4698 88.4199 20.5198C88.2799 20.5998 88.1499 20.6898 88.0099 20.7798C87.9299 20.8398 87.8399 20.8898 87.7599 20.9498C87.6199 21.0398 87.4899 21.1398 87.3599 21.2398C87.2899 21.2998 87.2099 21.3498 87.1299 21.4098C86.9899 21.5198 86.8599 21.6298 86.7299 21.7398C86.6599 21.7998 86.5999 21.8498 86.5299 21.9098C86.3899 22.0298 86.2599 22.1598 86.1299 22.2898C86.0699 22.3398 86.0199 22.3898 85.9699 22.4498C85.8199 22.5898 85.6899 22.7398 85.5499 22.8898C85.5099 22.9298 85.4699 22.9698 85.4299 23.0098C85.2699 23.1898 85.1199 23.3698 84.9699 23.5598C84.9599 23.5798 84.9399 23.5998 84.9299 23.6098C84.1199 24.6298 83.4599 25.7798 82.9699 27.0198C82.7399 26.9698 82.4999 26.9398 82.2499 26.9398C80.6099 26.9398 79.2599 28.1598 79.0499 29.7398C78.3499 30.1598 77.8899 30.9198 77.8899 31.7898C77.8899 32.8198 78.5499 33.7098 79.4699 34.0398C79.9399 35.1098 81.0099 35.8598 82.2499 35.8598C82.3799 35.8598 82.5099 35.8598 82.6299 35.8398C82.6299 35.8398 82.6299 35.8498 82.6299 35.8598C82.6599 35.9498 82.6899 36.0298 82.7199 36.1198C82.7599 36.2198 82.7899 36.3298 82.8199 36.4298C82.8499 36.5198 82.8899 36.6098 82.9199 36.6998C82.9599 36.7998 82.9899 36.8898 83.0299 36.9898C83.0699 37.0798 83.0999 37.1698 83.1399 37.2598C83.1799 37.3598 83.2299 37.4498 83.2699 37.5498C83.3099 37.6398 83.3499 37.7198 83.3899 37.8098C83.4499 37.9298 83.5099 38.0598 83.5799 38.1798C83.6399 38.2898 83.6999 38.3998 83.7599 38.5098C83.8199 38.6098 83.8699 38.7098 83.9399 38.8098C83.9899 38.8898 84.0399 38.9698 84.0899 39.0498C84.1499 39.1398 84.1999 39.2298 84.2599 39.3098C84.3099 39.3898 84.3699 39.4698 84.4199 39.5498C84.4799 39.6398 84.5399 39.7198 84.5999 39.8098C84.6599 39.8798 84.7099 39.9598 84.7599 40.0298C84.8299 40.1198 84.9099 40.2198 84.9799 40.3098C85.0299 40.3698 85.0799 40.4398 85.1299 40.4998C85.2499 40.6398 85.3599 40.7798 85.4899 40.9098C85.5499 40.9698 85.6099 41.0298 85.6599 41.0898C85.7399 41.1698 85.8199 41.2598 85.8999 41.3298C85.9599 41.3898 86.0299 41.4598 86.0899 41.5198C86.1699 41.5998 86.2499 41.6698 86.3299 41.7498C86.3899 41.8098 86.4599 41.8698 86.5199 41.9298C86.6099 42.0098 86.6999 42.0798 86.7899 42.1598C86.8499 42.2098 86.9099 42.2598 86.9699 42.3098C87.1199 42.4298 87.2599 42.5498 87.4099 42.6598C87.4599 42.6998 87.5099 42.7398 87.5699 42.7698C87.6799 42.8498 87.7899 42.9298 87.8999 42.9998C87.9699 43.0498 88.0399 43.0898 88.1099 43.1398C88.2099 43.2098 88.3099 43.2698 88.4099 43.3298C88.4799 43.3698 88.5499 43.4198 88.6299 43.4598C88.7299 43.5198 88.8399 43.5798 88.9399 43.6398C89.0099 43.6798 89.0799 43.7198 89.1399 43.7498C89.2699 43.8198 89.4099 43.8898 89.5499 43.9598C89.5899 43.9798 89.6299 43.9998 89.6699 44.0198C89.8399 44.0998 90.0199 44.1798 90.1999 44.2598C90.2699 44.2898 90.3299 44.3098 90.3999 44.3398C90.5199 44.3898 90.6399 44.4398 90.7599 44.4798C90.8299 44.5098 90.9099 44.5298 90.9799 44.5598C91.0999 44.5998 91.2199 44.6398 91.3399 44.6798C91.4099 44.6998 91.4899 44.7298 91.5599 44.7498C91.6899 44.7898 91.8299 44.8298 91.9599 44.8598C92.0199 44.8798 92.0799 44.8898 92.1399 44.9098C92.3299 44.9598 92.5299 44.9998 92.7199 45.0498C92.7799 45.0598 92.8299 45.0698 92.8899 45.0798C93.0399 45.1098 93.1799 45.1398 93.3299 45.1598C93.4099 45.1698 93.4799 45.1798 93.5599 45.1898C93.6899 45.2098 93.8199 45.2298 93.9499 45.2398C94.0299 45.2398 94.1099 45.2598 94.1899 45.2698C94.3299 45.2798 94.4599 45.2898 94.5999 45.2998C94.6699 45.2998 94.7499 45.3098 94.8199 45.3098C95.0099 45.3098 95.2099 45.3198 95.3999 45.3298H95.4399C95.6999 45.3298 95.9599 45.3298 96.2199 45.3098C96.2999 45.3098 96.3699 45.2998 96.4499 45.2898C96.6299 45.2798 96.8199 45.2598 96.9999 45.2398C97.0899 45.2298 97.1699 45.2198 97.2599 45.2098C97.4399 45.1898 97.6099 45.1598 97.7799 45.1298C97.8599 45.1198 97.9399 45.0998 98.0199 45.0898C98.2199 45.0498 98.4199 45.0098 98.6199 44.9598C98.6699 44.9498 98.7099 44.9398 98.7599 44.9298C98.9999 44.8698 99.2499 44.7998 99.4899 44.7198C99.5399 44.6998 99.5899 44.6898 99.6399 44.6698C99.8299 44.6098 100.01 44.5398 100.2 44.4698C100.27 44.4398 100.35 44.4098 100.42 44.3798C100.58 44.3198 100.74 44.2498 100.9 44.1798C100.97 44.1498 101.05 44.1098 101.12 44.0798C101.29 43.9998 101.45 43.9198 101.61 43.8398C101.65 43.8198 101.7 43.7998 101.74 43.7798C101.76 43.7698 101.78 43.7598 101.8 43.7498C104.12 42.4998 106.04 40.5898 107.29 38.2698C107.29 38.2698 107.29 38.2498 107.3 38.2398C107.4 38.0598 107.49 37.8698 107.58 37.6898C107.59 37.6598 107.61 37.6298 107.62 37.6098C107.7 37.4398 107.78 37.2698 107.85 37.0998C107.87 37.0598 107.88 37.0198 107.9 36.9798C107.97 36.8198 108.03 36.6498 108.09 36.4898C108.11 36.4398 108.12 36.3898 108.14 36.3398C108.19 36.1798 108.25 36.0298 108.3 35.8698C108.3 35.8698 108.3 35.8598 108.3 35.8498C108.35 35.8498 108.4 35.8598 108.46 35.8698V38.5798C108.46 38.9398 108.75 39.2398 109.12 39.2398C109.49 39.2398 109.78 38.9498 109.78 38.5798V35.6698C110.54 35.3798 111.14 34.7898 111.47 34.0498C112.39 33.7098 113.05 32.8298 113.05 31.7998C113.05 30.9298 112.58 30.1698 111.89 29.7498M96.6999 32.5298C96.6999 32.5298 96.7899 32.5298 96.8399 32.5098C97.1999 32.4498 97.4399 32.1098 97.3799 31.7598C97.3199 31.3998 96.9899 31.1598 96.6299 31.2198C95.9399 31.3298 95.2199 31.3398 94.5299 31.2198C94.1699 31.1598 93.8399 31.4098 93.7799 31.7598C93.7199 32.1198 93.9699 32.4498 94.3199 32.5098C94.3399 32.5098 94.3499 32.5098 94.3699 32.5098C91.9199 32.9798 89.9899 34.9098 89.5199 37.3598C87.0999 36.3198 84.9999 34.6798 83.4199 32.6198C83.4099 32.3898 83.3999 32.1598 83.3999 31.9398C83.3999 31.2598 83.4599 30.5998 83.5599 29.9498C86.8299 27.3798 90.7199 25.9598 94.8599 25.8298C95.5499 26.9498 96.4299 27.9098 97.4599 28.6798C97.4599 28.6798 97.4599 28.6798 97.4599 28.6898C97.4599 30.8898 99.2399 32.6698 101.44 32.6698C102.87 32.6698 104.13 31.9098 104.83 30.7698C105.74 30.6898 106.63 30.4798 107.49 30.1698C107.57 30.7398 107.63 31.3298 107.63 31.9198C107.63 32.1498 107.63 32.3798 107.61 32.5998C106.03 34.6598 103.93 36.3098 101.51 37.3398C101.05 34.8998 99.1299 32.9698 96.6999 32.4898M99.2699 37.9398C99.2699 40.0098 97.5899 41.6898 95.5199 41.6898C93.4499 41.6898 91.7699 40.0098 91.7699 37.9398C91.7699 37.8998 91.7699 37.8598 91.7699 37.8198C93.4299 37.3198 94.7899 36.1398 95.5199 34.5998C96.2499 36.1398 97.6099 37.3198 99.2699 37.8198C99.2699 37.8598 99.2699 37.8998 99.2699 37.9398ZM87.6999 25.7898C87.6999 24.5998 88.6599 23.6398 89.8499 23.6398C90.6999 23.6398 91.4299 24.1398 91.7799 24.8698C90.3899 25.1298 89.0299 25.5298 87.7199 26.0598C87.7099 25.9698 87.6999 25.8798 87.6999 25.7898ZM106.38 29.1798C105.56 29.4198 104.71 29.5398 103.83 29.5398C100.92 29.5398 98.1799 28.1498 96.4499 25.8598C99.9999 26.0298 103.45 27.1898 106.38 29.1798ZM99.2299 24.8598C99.5799 24.1398 100.31 23.6398 101.16 23.6398C102.35 23.6398 103.31 24.5998 103.31 25.7898C103.31 25.8798 103.31 25.9598 103.29 26.0498C101.98 25.5198 100.62 25.1198 99.2299 24.8598ZM95.5099 21.9098C94.4099 21.9098 93.5099 21.0898 93.3799 20.0298C93.8899 19.9398 94.4199 19.8798 94.9499 19.8498C95.1399 19.8498 95.3199 19.8398 95.5099 19.8398C95.6999 19.8398 95.8799 19.8398 96.0699 19.8498C96.5999 19.8798 97.1299 19.9398 97.6399 20.0298C97.5099 21.0898 96.6099 21.9098 95.5099 21.9098Z" fill="#1D1D1B"/>
<path d="M91.9699 28.2099C90.4299 29.1399 88.6199 29.5999 86.8199 29.5299C86.4699 29.5199 86.1499 29.7999 86.1399 30.1599C86.1199 30.5199 86.4099 30.8299 86.7699 30.8399C86.9099 30.8399 87.0499 30.8399 87.1899 30.8399C89.1199 30.8399 90.9999 30.3099 92.6499 29.3199C92.9599 29.1299 93.0599 28.7299 92.8699 28.4199C92.6799 28.1099 92.2799 28.0099 91.9699 28.1999" fill="#1D1D1B"/>
<path d="M93.9199 37.6199C93.5699 37.5299 93.2099 37.7399 93.1199 38.0899C93.0299 38.4399 93.2399 38.7999 93.5899 38.8899C94.2299 39.0599 94.8899 39.1399 95.5599 39.1399C96.2299 39.1399 96.9299 39.0499 97.5899 38.8699C97.9399 38.7799 98.1499 38.4199 98.0499 38.0699C97.9599 37.7199 97.5999 37.5099 97.2499 37.6099C96.1699 37.8999 94.9999 37.9099 93.9199 37.6199Z" fill="#1D1D1B"/>
</g>
<defs>
<clipPath id="clip0_677_2507">
<rect width="192.96" height="110.69" fill="white"/>
</clipPath>
</defs>
</svg>
